<svg id="Layer_1" xmlns="http://www.w3.org/2000/svg" xmlns:xlink="http://www.w3.org/1999/xlink" viewBox="0 0 745.777 544.759"><style>.st0{clip-path:url(#SVGID_2_);fill:url(#SVGID_3_);} .st1{clip-path:url(#SVGID_2_);fill:#EFF1EC;} .st2{clip-path:url(#SVGID_2_);} .st3{fill:#291401;} .st4{fill:#E24326;} .st5{fill:#364449;} .st6{fill:#303D43;} .st7{fill:#EEEEEE;} .st8{fill:#E4E4E4;} .st9{fill:#405056;} .st10{fill:#3A494F;} .st11{fill:#FFFFFF;} .st12{fill:#F3F3F3;} .st13{clip-path:url(#SVGID_2_);fill:#B2B72D;} .st14{fill:#83890A;} .st15{fill:#737900;} .st16{fill:#160200;} .st17{fill:#9BA223;} .st18{fill:#899013;} .st19{fill:#422D1A;} .st20{fill:#301B09;} .st21{clip-path:url(#SVGID_2_);fill:#33898D;} .st22{clip-path:url(#SVGID_2_);fill:#C5C936;} .st23{clip-path:url(#SVGID_2_);fill:#754C29;} .st24{clip-path:url(#SVGID_5_);} .st25{opacity:0.08;fill:#FFFFFF;} .st26{clip-path:url(#SVGID_2_);fill:#399599;} .st27{clip-path:url(#SVGID_2_);fill:#3B9CA0;} .st28{clip-path:url(#SVGID_2_);fill:#3FA1A6;} .st29{fill:#023B4F;} .st30{fill:#003447;} .st31{fill:#CCCCCC;} .st32{fill:#E6E6E6;} .st33{fill:#E8E8E4;} .st34{clip-path:url(#SVGID_2_);fill:#41ABB0;} .st35{fill:#CD3D22;} .st36{fill:#414042;}</style><defs><path id="SVGID_1_" d="M0 0h745.777v544.759H0z"/></defs><clipPath id="SVGID_2_"><use xlink:href="#SVGID_1_" overflow="visible"/></clipPath><linearGradient id="SVGID_3_" gradientUnits="userSpaceOnUse" x1="372.8884" y1="544.759" x2="372.8884"><stop offset="0" stop-color="#FFF"/><stop offset=".6968" stop-color="#EE9C1D"/></linearGradient><path class="st0" d="M0 0h745.777v544.759H0z"/><path class="st1" d="M304.704 365.031c0-10.714-11.083-19.398-24.757-19.398-3.076 0-6.016.441-8.732 1.244 2.951-3.194 4.695-7.116 4.695-11.36 0-10.714-11.084-19.398-24.758-19.398-6.167 0-11.803 1.77-16.138 4.692-1.022-7.1-6.932-13.04-15.036-15.7 1.028-2.132 1.595-4.441 1.595-6.855 0-3.221-1.008-6.256-2.782-8.929 9.553-2.69 16.385-9.849 16.385-18.259 0-4.619-2.063-8.856-5.502-12.188 6.203-3.525 10.24-9.246 10.24-15.708 0-10.713-11.085-19.399-24.758-19.399v-.001c0-10.713-11.085-19.399-24.758-19.399-2.299 0-4.522.251-6.634.71-2.686-5.055-8.023-9.026-14.651-10.852 1.875-2.732 2.942-5.856 2.942-9.176 0-10.713-11.085-19.399-24.758-19.399-.605 0-1.202.023-1.794.056 1.153-2.24 1.794-4.686 1.794-7.251 0-10.712-11.085-19.398-24.759-19.398-4.195 0-8.146.821-11.609 2.264-2.784-8.325-12.45-14.469-23.95-14.469-13.674 0-24.758 8.686-24.758 19.398 0 8.679 7.273 16.024 17.303 18.503-4.038 3.452-6.503 8.051-6.503 13.101 0 6.558 4.157 12.352 10.516 15.863-6.358 3.511-10.516 9.305-10.516 15.863 0 1.003.097 1.988.284 2.951-.096-.001-.189-.005-.284-.005-13.674 0-24.759 8.686-24.759 19.398 0 3.266 1.035 6.341 2.854 9.042-12.623.888-22.519 9.195-22.519 19.315 0 10.714 11.085 19.399 24.759 19.399 1.523 0 3.011-.112 4.459-.319-2.807 3.145-4.459 6.969-4.459 11.099 0 3.029.887 5.895 2.466 8.448-10.572 2.211-18.36 9.762-18.36 18.739 0 3.509 1.195 6.799 3.275 9.639-9.994 2.494-17.234 9.826-17.234 18.482 0 8.246 6.571 15.287 15.83 18.094-1.203 2.282-1.871 4.781-1.871 7.404 0 4.842 2.27 9.266 6.015 12.666H285.47c11.014-1.966 19.234-9.682 19.234-18.907zM317.51 45.302c0-5.301-5.486-9.6-12.253-9.6-1.457 0-2.855.2-4.151.566-.643-4.827-5.854-8.591-12.185-8.591-6.423 0-11.687 3.873-12.207 8.799-1.481-.498-3.11-.774-4.824-.774-6.767 0-12.254 4.299-12.254 9.6-6.767 0-12.253 4.299-12.253 9.601s5.486 9.601 12.253 9.601c2.673 0 5.145-.673 7.158-1.811.823 4.677 5.94 8.279 12.135 8.279 5.715 0 10.516-3.066 11.87-7.212 2.169 2.699 6.003 4.494 10.375 4.494 4.559 0 8.535-1.953 10.645-4.849 1.701.7 3.636 1.099 5.691 1.099 6.768 0 12.254-4.298 12.254-9.601 0-5.302-5.486-9.601-12.254-9.601zM247.301 97.605c0-5.696-5.894-10.315-13.165-10.315-1.565 0-3.067.215-4.46.608-.691-5.187-6.289-9.231-13.093-9.231-6.901 0-12.557 4.161-13.116 9.454-1.591-.534-3.342-.831-5.183-.831-7.27 0-13.165 4.619-13.165 10.315-7.271 0-13.165 4.619-13.165 10.316 0 5.697 5.894 10.315 13.165 10.315 2.872 0 5.528-.723 7.691-1.946.884 5.025 6.382 8.895 13.038 8.895 6.14 0 11.299-3.294 12.754-7.749 2.331 2.9 6.45 4.829 11.147 4.829 4.899 0 9.17-2.099 11.438-5.21 1.828.753 3.907 1.18 6.114 1.18 7.272 0 13.166-4.619 13.166-10.315s-5.894-10.315-13.166-10.315z"/><g class="st2"><path class="st3" d="M375.218 62.241h3.1v46.817h-3.1z"/><path class="st4" d="M411.369 79.702h-33.25V62.241h33.25l-12.819 8.73z"/></g><g class="st2"><path class="st5" d="M467.986 119.763L381.12 315.9h146.471V119.763z"/><path class="st6" d="M585.833 119.763h-59.019V315.9h145.883z"/><path class="st7" d="M460.039 137.707c25.888 6.253 41.862-15.452 41.862-15.452s5.226 15.52 25.689 16.187l-.777-152.218-66.774 151.483z"/><path class="st8" d="M526.909-13.992l-.095.215v152.218c.449.014.896.031 1.362.031 21.638 0 26.072-14.796 26.072-14.796s11.304 19.927 39.199 13.28L526.909-13.992z"/><g><path class="st9" d="M609.68 205.35l-69.345 156.573h116.306l.777-156.573z"/><path class="st10" d="M703.753 205.35h-47.112v156.573h116.457z"/><g><path class="st11" d="M603.337 219.674c20.666 4.991 33.418-12.336 33.418-12.336s4.328 12.388 20.663 12.922l-.777-121.515-53.304 120.929z"/><path class="st12" d="M656.718 98.574l-.077.172v121.515c.36.011.715.025 1.086.025 17.274 0 20.816-11.811 20.816-11.811s9.023 15.907 31.291 10.601L656.718 98.574z"/></g></g><g><path class="st9" d="M329.811 208.531l-69.344 156.573H377.55V208.531z"/><path class="st10" d="M423.885 208.531h-47.112v156.573H493.23z"/><g><path class="st11" d="M323.468 222.855c20.666 4.991 33.418-12.336 33.418-12.336s4.328 12.388 20.663 12.922l-.777-121.515-53.304 120.929z"/><path class="st12" d="M376.849 101.755l-.077.172v121.515c.36.011-.062.025.309.025 17.274 0 21.593-11.811 21.593-11.811s9.023 15.907 31.291 10.601l-53.116-120.502z"/></g></g></g><path class="st13" d="M760.057 376.843H338.44s99.761-107.981 216.186-107.981c116.427 0 205.431 107.981 205.431 107.981z"/><g class="st2"><path class="st14" d="M450.232 227.203l-16.61 71.902h16.625v-71.836z"/><path class="st15" d="M450.247 227.269v71.836h16.596z"/><path class="st3" d="M450.138 251.691l-.496 16.837-5.159-4.946 5.099 6.987-.221 7.492-7.93-7.669 7.848 10.419-.232 7.945-9.565-9.311 9.484 12.001-.806 21.37h2.087V255.4z"/><path class="st16" d="M451.314 291.673l9.669-12.228-9.75 9.49-.231-7.886 8.032-10.657-8.114 7.847-.231-7.841 4.973-7.086-5.023 5.374-.392-13.286v57.416h1.868z"/><path class="st14" d="M500.171 215.804l-16.609 71.902h16.625V215.87z"/><path class="st15" d="M500.187 215.87v71.836h16.596z"/><path class="st3" d="M500.077 240.293l-.496 16.836-5.159-4.946 5.1 6.988-.222 7.491-7.929-7.669 7.847 10.419-.232 7.945-9.565-9.311 9.485 12.002-.806 21.369h2.087v-57.416z"/><path class="st16" d="M501.253 280.274l9.67-12.228-9.75 9.49-.231-7.885 8.031-10.658-8.113 7.848-.232-7.842 4.974-7.085-5.024 5.374-.391-13.287v57.416h1.867z"/><path class="st14" d="M538.275 218.207l-14.801 64.073h14.815v-64.014z"/><path class="st15" d="M538.289 218.266v64.014h14.789z"/><path class="st3" d="M538.191 240.029l-.442 15.003-4.597-4.407 4.544 6.227-.197 6.675-7.066-6.834 6.993 9.285-.207 7.079-8.523-8.297 8.452 10.695-.719 19.043h1.86v-51.165z"/><path class="st16" d="M539.239 275.657l8.617-10.897-8.689 8.457-.205-7.027 7.157-9.497-7.23 6.993-.207-6.988 4.432-6.314-4.476 4.789-.349-11.84v51.165h1.664z"/><g><path class="st14" d="M618.203 229.135l-14.219 61.553h14.232V229.19z"/><path class="st15" d="M618.216 229.19v61.498h14.208z"/><path class="st3" d="M618.124 250.098l-.426 14.414-4.416-4.235 4.365 5.982-.189 6.413-6.789-6.565 6.719 8.92-.2 6.801-8.188-7.971 8.12 10.275-.69 18.294h1.786v-49.154z"/><path class="st16" d="M619.13 284.325l8.278-10.468-8.347 8.124-.198-6.751 6.875-9.123-6.945 6.719-.199-6.714 4.258-6.066-4.3 4.601-.336-11.375v49.154h1.599z"/></g><g><path class="st14" d="M577.06 242.321l-13.786 59.677h13.798v-59.624z"/><path class="st15" d="M577.072 242.374v59.624h13.775z"/><path class="st3" d="M576.982 262.645l-.412 13.975-4.281-4.106 4.231 5.8-.183 6.217-6.582-6.365 6.514 8.649-.193 6.593-7.939-7.727 7.872 9.961-.669 17.736h1.732v-47.656z"/><path class="st16" d="M577.958 295.829l8.026-10.148-8.093 7.875-.192-6.545 6.666-8.845-6.734 6.514-.193-6.509 4.129-5.881-4.17 4.461-.325-11.029v47.656h1.551z"/></g><g><path class="st17" d="M551.993 283.217l-16.61 71.902h16.625v-71.836z"/><path class="st18" d="M552.008 283.283v71.836h16.595z"/><path class="st19" d="M551.899 307.706l-.497 16.836-5.158-4.946 5.099 6.988-.221 7.491-7.93-7.669 7.848 10.42-.232 7.944-9.565-9.311 9.484 12.002-.806 21.369h2.087v-57.416z"/><path class="st20" d="M553.075 347.687l9.668-12.228-9.749 9.49-.231-7.885 8.031-10.658-8.113 7.848-.232-7.842 4.974-7.085-5.024 5.374-.391-13.287v57.416h1.868z"/></g><g><path class="st17" d="M602.012 285.072l-13.243 57.327h13.255v-57.274z"/><path class="st18" d="M602.024 285.125v57.274h13.231z"/><path class="st19" d="M601.936 304.597l-.396 13.423-4.112-3.943 4.065 5.571-.176 5.973-6.322-6.115 6.256 8.308-.184 6.333-7.627-7.423 7.562 9.569-.643 17.038h1.665v-45.778z"/><path class="st20" d="M602.874 336.474l7.709-9.75-7.773 7.566-.185-6.287 6.404-8.497-6.469 6.257-.184-6.252 3.965-5.649-4.005 4.284-.312-10.593v45.778h1.489z"/></g><g><path class="st17" d="M522.827 252.376l-16.61 71.902h16.625v-71.836z"/><path class="st18" d="M522.842 252.442v71.836h16.595z"/><path class="st19" d="M522.733 276.865l-.497 16.836-5.158-4.946 5.099 6.988-.221 7.491-7.93-7.669 7.848 10.419-.232 7.945-9.565-9.311 9.483 12.002-.805 21.369h2.087v-57.416z"/><path class="st20" d="M523.909 316.846l9.668-12.228-9.749 9.49-.231-7.885 8.031-10.658-8.113 7.848-.232-7.842 4.974-7.085-5.024 5.374-.391-13.287v57.416h1.868z"/></g><g><path class="st17" d="M478.077 245.521l-16.609 71.902h16.624v-71.836z"/><path class="st18" d="M478.092 245.587v71.836h16.596z"/><path class="st19" d="M477.983 270.01l-.496 16.836-5.159-4.946 5.099 6.988-.221 7.491-7.93-7.669 7.848 10.419-.232 7.945-9.565-9.311 9.484 12.002-.806 21.369h2.087v-57.416z"/><path class="st20" d="M479.159 309.991l9.669-12.228-9.749 9.49-.232-7.886 8.032-10.657-8.114 7.847-.231-7.841 4.974-7.086-5.024 5.375-.392-13.287v57.416h1.868z"/></g></g><path class="st21" d="M679.411 308.21c-25.985 4.918-56.637 37.411-67.688 68.633l27.389.232c9.327-26.213 23.159-49.525 46.873-64.645-3.327-2.212-3.063-2.066-6.574-4.22z"/><path class="st22" d="M577.061 386.36H206.736s82.9-75.19 185.162-75.19 185.163 75.19 185.163 75.19z"/><path class="st22" d="M383.702 311.341c-98.457 3.826-176.966 75.019-176.966 75.019h116.256c4.882-10.801 10.656-21.294 17.421-31.619 12.079-17.514 26.516-31.729 43.289-43.4z"/><path class="st23" d="M509.486 341.657c-31.979-16.151-72.937-30.487-117.587-30.487-2.747 0-5.478.064-8.196.171-16.773 11.671-31.211 25.886-43.289 43.4-6.765 10.325-12.54 20.818-17.421 31.619h156.284c6.451-17.543 14.575-34.478 30.209-44.703z"/><path class="st22" d="M509.486 341.657c-15.634 10.224-23.758 27.16-30.21 44.703h97.785s-26.313-23.864-67.575-44.703z"/><g class="st2"><defs><path id="SVGID_4_" d="M509.486 341.657c-31.979-16.151-72.937-30.487-117.587-30.487-2.747 0-5.478.064-8.196.171-16.773 11.671-31.211 25.886-43.289 43.4-6.765 10.325-12.54 20.818-17.421 31.619h156.284c6.451-17.543 14.575-34.478 30.209-44.703z"/></defs><clipPath id="SVGID_5_"><use xlink:href="#SVGID_4_" overflow="visible"/></clipPath><g class="st24"><path class="st25" d="M499.055 336.621s-1.194.616-3.142 1.982c-.964.693-2.12 1.548-3.392 2.592-1.264 1.055-2.654 2.281-4.087 3.7-1.431 1.419-2.935 2.994-4.393 4.772-.751.867-1.455 1.817-2.207 2.752-.704.977-1.458 1.941-2.14 2.987-.346.517-.695 1.039-1.047 1.564-.332.538-.666 1.079-1.001 1.625-.682 1.08-1.305 2.217-1.956 3.342-.63 1.139-1.22 2.313-1.817 3.483-.542 1.203-1.144 2.375-1.639 3.6-1.029 2.431-1.908 4.924-2.606 7.426-.361 1.246-.704 2.483-1.017 3.714-.306 1.233-.687 2.42-.982 3.618-.316 1.191-.706 2.336-1.026 3.481-.324 1.144-.679 2.255-1.039 3.338-.308 1.096-.641 2.158-.951 3.192-.163.515-.341 1.019-.487 1.521-.137.504-.286.996-.433 1.479-.605 1.946-1.159 3.73-1.651 5.312-.53 1.604-.992 3.002-1.373 4.154-.398 1.16-.731 2.078-.982 2.704-.245.627-.395.962-.395.962l-.853-.046s-.101-.349-.253-1.007c-.159-.658-.356-1.623-.581-2.859-.238-1.237-.414-2.739-.537-4.47-.072-.866-.129-1.789-.167-2.763-.004-.971-.009-1.995.017-3.063-.003-2.143.261-4.444.541-6.885.188-1.212.396-2.459.646-3.725.233-1.27.622-2.537.981-3.83.36-1.294.856-2.574 1.37-3.86.473-1.299 1.103-2.563 1.702-3.843.58-1.286 1.257-2.545 1.912-3.813.642-1.272 1.35-2.521 2.039-3.773.673-1.259 1.455-2.464 2.174-3.689.775-1.195 1.542-2.385 2.346-3.536.831-1.134 1.608-2.288 2.497-3.343.432-.533.863-1.064 1.289-1.591.446-.511.889-1.017 1.328-1.52 1.773-1.991 3.569-3.837 5.392-5.454 1.796-1.642 3.606-3.063 5.303-4.321 1.696-1.261 3.348-2.281 4.81-3.163 1.473-.872 2.8-1.551 3.907-2.076 2.216-1.038 3.573-1.462 3.573-1.462l.327.792zM480.289 328.49s-1.187.923-3.11 2.754c-.954.919-2.104 2.041-3.366 3.381-1.272 1.33-2.644 2.887-4.095 4.616-1.465 1.715-2.951 3.659-4.478 5.731-1.491 2.103-3.056 4.316-4.518 6.704-.759 1.174-1.447 2.423-2.187 3.652-.675 1.271-1.429 2.51-2.095 3.815-.674 1.299-1.365 2.598-1.983 3.942l-.95 2.004-.886 2.038c-1.181 2.714-2.153 5.516-3.015 8.29-.81 2.781-1.606 5.518-2.378 8.166-.771 2.64-1.6 5.169-2.353 7.594-.189.606-.379 1.203-.581 1.79-.173.593-.344 1.178-.512 1.753-.359 1.151-.706 2.263-1.039 3.33-.593 2.156-1.293 4.124-1.782 5.902-.512 1.774-1.077 3.321-1.447 4.615-.409 1.29-.75 2.31-1.007 3.007-.251.697-.404 1.07-.404 1.07l-.854-.046s-.098-.388-.245-1.116c-.153-.73-.342-1.801-.556-3.173-.235-1.374-.342-3.038-.459-4.96-.147-1.925-.081-4.085-.009-6.456.033-1.186.189-2.405.291-3.681.069-.636.139-1.281.21-1.938.091-.653.201-1.313.314-1.983.394-2.691 1.052-5.49 1.922-8.326.48-1.405.95-2.84 1.548-4.247.595-1.409 1.209-2.827 1.889-4.229 1.362-2.803 2.799-5.612 4.324-8.364l1.14-2.063 1.203-2.021c.785-1.353 1.643-2.654 2.48-3.949.833-1.298 1.73-2.541 2.6-3.774.923-1.198 1.788-2.41 2.721-3.542 1.817-2.298 3.679-4.429 5.504-6.385 1.852-1.935 3.631-3.725 5.358-5.288 1.71-1.579 3.348-2.945 4.826-4.117 1.47-1.181 2.802-2.145 3.916-2.914 2.222-1.535 3.588-2.29 3.588-2.29l.475.708zM462.857 323.268s-.094.033-.277.099c-.176.068-.453.172-.8.331-.699.309-1.715.803-2.941 1.549-1.226.746-2.672 1.718-4.247 2.938-1.566 1.236-3.238 2.743-4.971 4.467-1.727 1.736-3.462 3.745-5.199 5.938-1.684 2.242-3.429 4.619-5.018 7.231-.834 1.275-1.566 2.656-2.367 4.001-.727 1.398-1.522 2.772-2.239 4.207-1.441 2.867-2.821 5.822-4.047 8.848-.6 1.518-1.242 3.015-1.74 4.571-.529 1.541-1.073 3.063-1.515 4.615-.455 1.547-.947 3.057-1.374 4.578-.422 1.521-.893 3.001-1.361 4.458-.878 2.936-1.894 5.719-2.8 8.397-.955 2.66-1.81 5.2-2.67 7.537-.883 2.329-1.615 4.498-2.374 6.4-.759 1.911-1.421 3.578-1.966 4.949-.574 1.372-1.045 2.452-1.391 3.184-.339.734-.539 1.124-.539 1.124l-.842-.146s-.047-.432-.1-1.24c-.059-.809-.11-1.989-.149-3.493-.033-1.504-.049-3.329.086-5.403.131-2.075.234-4.43.599-6.961.152-1.271.359-2.586.552-3.955.213-1.363.497-2.761.795-4.198.54-2.887 1.372-5.877 2.328-8.936 1.05-3.036 2.289-6.12 3.737-9.178.678-1.544 1.459-3.065 2.208-4.6.742-1.537 1.521-3.068 2.318-4.588 1.557-3.054 3.274-6.035 5.047-8.912.888-1.438 1.832-2.831 2.76-4.201.996-1.333 1.911-2.686 2.931-3.94.501-.631.998-1.257 1.49-1.878.502-.612 1.025-1.2 1.528-1.79.988-1.194 2.067-2.274 3.073-3.352 2.096-2.089 4.159-3.974 6.18-5.577 2.026-1.597 3.986-2.918 5.775-3.997 1.802-1.063 3.438-1.869 4.82-2.45 2.757-1.171 4.493-1.459 4.493-1.459l.207.832zM442.53 317.375s-.106.038-.311.112c-.197.077-.507.195-.896.372-.782.347-1.918.904-3.288 1.741-1.368.84-2.989 1.923-4.749 3.293-1.75 1.386-3.629 3.063-5.555 5.011-1.912 1.965-3.841 4.224-5.758 6.701-1.852 2.534-3.794 5.202-5.53 8.153-.224.363-.448.728-.674 1.094-.211.376-.423.753-.636 1.133-.426.756-.854 1.517-1.285 2.283-.8 1.57-1.656 3.129-2.442 4.742-1.563 3.233-3.054 6.564-4.368 9.973-.641 1.712-1.333 3.398-1.861 5.147-.561 1.734-1.146 3.445-1.611 5.19-1.011 3.454-1.886 6.888-2.864 10.167-.898 3.31-1.944 6.457-2.854 9.484-.95 3.025-1.848 5.885-2.678 8.525-.886 2.638-1.598 5.092-2.35 7.247-.747 2.166-1.399 4.054-1.935 5.609-.55 1.559-1.02 2.783-1.356 3.616-.332.834-.529 1.277-.529 1.277l-.846-.121s-.052-.479-.113-1.375c-.065-.897-.137-2.21-.181-3.88-.017-.835-.035-1.76-.055-2.768-.007-1.006.042-2.088.087-3.245.119-2.312.198-4.936.561-7.762.148-1.419.351-2.889.541-4.417.209-1.523.499-3.088.798-4.695.539-3.229 1.397-6.581 2.372-10.019.564-1.699 1.13-3.43 1.771-5.157.303-.869.637-1.735 1.009-2.593.36-.861.723-1.727 1.086-2.595.701-1.743 1.525-3.462 2.306-5.198.773-1.738 1.603-3.464 2.441-5.182 1.647-3.45 3.476-6.817 5.373-10.071.957-1.622 1.963-3.204 2.966-4.752.527-.76 1.051-1.515 1.572-2.265.26-.374.519-.746.777-1.118.273-.362.545-.723.815-1.082.541-.716 1.078-1.426 1.61-2.13.559-.683 1.113-1.359 1.661-2.029 1.07-1.355 2.253-2.579 3.349-3.801 2.29-2.372 4.561-4.503 6.776-6.329 2.23-1.81 4.375-3.336 6.346-4.572 1.978-1.23 3.788-2.155 5.316-2.828 3.048-1.359 4.974-1.71 4.974-1.71l.218.824zM422.081 313.207s-.111.037-.327.11c-.209.078-.535.194-.946.376-.824.357-2.023.926-3.468 1.794-1.442.875-3.14 2.02-4.989 3.461-1.856 1.432-3.812 3.226-5.832 5.279-2.032 2.042-4.052 4.437-6.071 7.044-2.021 2.608-3.986 5.488-5.913 8.526-1.881 3.074-3.718 6.31-5.445 9.679-.429.843-.86 1.689-1.292 2.537-.43.85-.814 1.729-1.225 2.594-.404.867-.809 1.737-1.215 2.607l-1.131 2.658-1.113 2.661c-.347.899-.686 1.799-1.014 2.701-.331.9-.661 1.798-.99 2.693-.3.908-.599 1.813-.896 2.715-.596 1.802-1.184 3.585-1.729 5.365-.529 1.784-1.169 3.501-1.7 5.229-.556 1.72-1.124 3.403-1.721 5.038-.581 1.645-1.15 3.253-1.704 4.819-1.157 3.12-2.17 6.108-3.205 8.845-.519 1.367-1.012 2.683-1.458 3.942-.469 1.253-.907 2.446-1.351 3.56-.887 2.236-1.661 4.187-2.298 5.792-.652 1.608-1.202 2.868-1.594 3.724-.387.857-.613 1.312-.613 1.312l-.838-.168s-.021-.504-.023-1.446c-.006-.942.008-2.32.073-4.069.038-.876.08-1.844.126-2.898.051-1.055.174-2.182.292-3.391.114-1.211.27-2.492.427-3.847.086-.676.174-1.369.264-2.079.102-.708.234-1.426.354-2.164.497-2.945 1.055-6.139 1.887-9.463.406-1.665.782-3.387 1.301-5.112.505-1.729 1.062-3.484 1.65-5.26 1.276-3.524 2.712-7.124 4.418-10.685.413-.894.829-1.791 1.245-2.691.441-.891.883-1.783 1.326-2.677.446-.892.883-1.79 1.313-2.691l1.384-2.665 1.375-2.667c.488-.874.976-1.747 1.463-2.618.493-.868.958-1.746 1.47-2.598.514-.85 1.027-1.698 1.538-2.542.995-1.699 2.106-3.321 3.174-4.932 1.088-1.599 2.229-3.139 3.338-4.655 1.173-1.476 2.262-2.966 3.459-4.333.588-.69 1.156-1.381 1.74-2.045.602-.649 1.197-1.291 1.784-1.924 2.386-2.495 4.741-4.757 7.077-6.661 2.323-1.914 4.542-3.556 6.624-4.842 2.068-1.302 3.959-2.292 5.563-3.001 1.603-.714 2.914-1.152 3.819-1.418.452-.137.804-.217 1.05-.275.243-.049.369-.075.369-.075l.198.831zM402.476 310.074s-.421.219-1.205.686c-.781.465-1.907 1.19-3.298 2.17-1.392.978-3.034 2.235-4.869 3.726-1.839 1.487-3.819 3.282-5.913 5.295-2.096 2.013-4.238 4.323-6.438 6.809-2.148 2.538-4.409 5.206-6.542 8.13-1.105 1.429-2.119 2.97-3.203 4.476-1.012 1.564-2.099 3.096-3.102 4.706-.997 1.614-2.04 3.211-2.978 4.886-.481.828-.963 1.659-1.445 2.491-.471.838-.916 1.693-1.375 2.538l-1.347 2.55c-.427.863-.845 1.728-1.253 2.595-.405.869-.837 1.721-1.216 2.597-.378.876-.756 1.749-1.131 2.619-.37.872-.761 1.727-1.109 2.599-.339.876-.698 1.737-1.051 2.594-.354.856-.699 1.709-1.074 2.542-.341.848-.679 1.69-1.015 2.526-1.432 3.301-2.754 6.524-4.136 9.539-1.262 3.064-2.591 5.92-3.703 8.614-.568 1.341-1.143 2.62-1.688 3.84-.523 1.228-1.007 2.397-1.497 3.489-.986 2.192-1.845 4.103-2.552 5.676-.711 1.58-1.307 2.818-1.729 3.661-.418.842-.661 1.289-.661 1.289l-.832-.197s-.002-.505.03-1.447c.029-.943.094-2.322.225-4.073.076-.872.131-1.848.247-2.898.133-1.045.278-2.177.456-3.383.167-1.209.376-2.489.594-3.842.268-1.339.55-2.749.874-4.214.592-2.947 1.49-6.073 2.45-9.382 1.044-3.281 2.203-6.732 3.736-10.172.384-.859.772-1.724 1.163-2.596.411-.864.858-1.719 1.3-2.582.866-1.733 1.809-3.454 2.812-5.163.981-1.718 1.971-3.444 3.038-5.139.526-.85 1.045-1.707 1.556-2.567l1.62-2.535c.542-.844 1.068-1.696 1.622-2.531.565-.827 1.129-1.654 1.692-2.478 1.102-1.664 2.309-3.249 3.465-4.845 1.168-1.589 2.397-3.115 3.599-4.625 1.266-1.465 2.454-2.955 3.731-4.333.629-.696 1.253-1.385 1.872-2.069.638-.665 1.269-1.324 1.894-1.976 1.231-1.318 2.531-2.519 3.763-3.714 2.533-2.324 4.975-4.459 7.338-6.297 2.36-1.839 4.571-3.456 6.607-4.779 2.027-1.333 3.838-2.425 5.38-3.236 3.06-1.652 4.951-2.35 4.951-2.35l.347.78z"/></g></g><path class="st26" d="M726.323 371.559c-15.328 0-27.864-6.728-28.859-15.234h-.142c-.995 8.506-13.531 15.234-28.859 15.234s-27.864-6.728-28.859-15.234h-.142c-.995 8.506-13.531 15.234-28.859 15.234s-27.864-6.728-28.859-15.234h-.142c-.995 8.506-13.531 15.234-28.859 15.234-15.328 0-27.864-6.728-28.859-15.234h-.142c-.995 8.506-13.531 15.234-28.859 15.234-15.328 0-27.864-6.728-28.859-15.234h-.142c-.995 8.506-13.531 15.234-28.859 15.234s-27.864-6.728-28.859-15.234h-.142c-.995 8.506-13.531 15.234-28.859 15.234-15.328 0-27.864-6.728-28.858-15.234h-.143c-.994 8.506-13.53 15.234-28.858 15.234s-27.864-6.728-28.858-15.234h-.143c-.994 8.506-13.53 15.234-28.858 15.234s-27.864-6.728-28.858-15.234h-.143c-.994 8.506-13.53 15.234-28.858 15.234s-27.864-6.728-28.858-15.234h-.143c-.994 8.506-13.53 15.234-28.858 15.234s-27.864-6.728-28.858-15.234h-.143c-.994 8.506-13.53 15.234-28.858 15.234s-27.864-6.728-28.858-15.234h-.143c-.994 8.506-13.53 15.234-28.858 15.234-15.328 0-27.864-6.728-28.858-15.234H0v140.468h750.257V364.406c-5.205 4.317-13.982 7.153-23.934 7.153z"/><path class="st27" d="M730.679 393.113h-.142c-.349 2.983-2.121 5.745-4.931 8.077v-.008c-5.205 4.318-13.982 7.154-23.934 7.154-13.408 0-24.68-5.148-27.958-12.132-.466-.996-.77-2.029-.894-3.091h-.004c0-.004-.002-.008-.002-.011h-.142c-.996 8.507-13.532 15.234-28.859 15.234-13.408 0-24.68-5.148-27.958-12.132-.466-.996-.77-2.029-.894-3.091h-.004c0-.004-.002-.008-.002-.011h-.142c-.996 8.507-13.532 15.234-28.859 15.234-13.408 0-24.681-5.148-27.959-12.133-.465-.996-.77-2.029-.893-3.09h-.004c0-.004-.002-.008-.002-.011h-.142c-.995 8.507-13.532 15.234-28.859 15.234-13.408 0-24.681-5.148-27.959-12.133-.465-.996-.77-2.029-.893-3.09h-.004c0-.004-.002-.008-.002-.011h-.142c-.996 8.507-13.532 15.234-28.859 15.234-13.408 0-24.68-5.148-27.958-12.132-.466-.996-.77-2.029-.894-3.091h-.004c0-.004-.002-.008-.002-.011h-.142c-.996 8.507-13.532 15.234-28.859 15.234-13.408 0-24.68-5.148-27.958-12.132-.466-.996-.77-2.029-.894-3.091h-.004c0-.004-.002-.008-.002-.011h-.142c-.996 8.507-13.532 15.234-28.859 15.234-13.408 0-24.68-5.148-27.959-12.132-.465-.996-.77-2.029-.893-3.091h-.004c0-.004-.002-.008-.002-.011h-.143c-.994 8.507-13.53 15.234-28.858 15.234-13.409 0-24.681-5.148-27.959-12.132-.466-.996-.77-2.029-.894-3.091h-.004c0-.004-.001-.008-.002-.011h-.143c-.994 8.507-13.53 15.234-28.858 15.234-13.409 0-24.681-5.148-27.959-12.132-.466-.996-.77-2.029-.894-3.091h-.004c0-.004-.001-.008-.002-.011h-.143c0 .003-.001.008-.002.011h-3.011v6.224c-4.756 5.336-14.537 8.999-25.845 8.999-15.328 0-27.864-6.728-28.858-15.234h-.143c-.994 8.507-13.53 15.234-28.858 15.234-15.328 0-27.864-6.728-28.858-15.234h-.143c-.994 8.507-13.53 15.234-28.858 15.234-15.328 0-27.864-6.728-28.858-15.234h-.143c-.994 8.507-13.53 15.234-28.858 15.234-2.548 0-5.015-.19-7.368-.539v64.639h206.79v.012h545.374v-64.64c-11.797-1.752-20.65-7.603-21.479-14.695z"/><path class="st28" d="M726.323 446.817c-13.408 0-24.68-5.149-27.958-12.132-.466-.996-.77-2.03-.894-3.091h-.004c0-.004-.002-.008-.002-.011h-.142c-.996 8.507-13.532 15.234-28.859 15.234-13.408 0-24.68-5.149-27.958-12.132-.466-.996-.77-2.03-.894-3.091h-.004c0-.004-.002-.008-.002-.011h-.142c-.996 8.507-13.532 15.234-28.859 15.234-13.408 0-24.681-5.149-27.959-12.133-.466-.996-.77-2.029-.893-3.09h-.004c0-.004-.002-.008-.002-.011h-.142c-.996 8.507-13.532 15.234-28.859 15.234-13.408 0-24.681-5.149-27.959-12.133-.466-.996-.77-2.029-.893-3.09h-.004c0-.004-.002-.008-.002-.011h-.142c-.996 8.507-13.532 15.234-28.859 15.234-13.408 0-24.68-5.149-27.958-12.132-.466-.996-.77-2.03-.894-3.091h-.004c0-.004-.002-.008-.002-.011h-.142c-.996 8.507-13.532 15.234-28.859 15.234-13.408 0-24.68-5.149-27.958-12.132-.466-.996-.77-2.03-.894-3.091h-.004c0-.004-.002-.008-.002-.011h-.142c-.996 8.507-13.532 15.234-28.859 15.234-13.409 0-24.68-5.149-27.958-12.132-.466-.996-.77-2.03-.894-3.091h-.004c0-.004-.001-.008-.002-.011h-.143c-.994 8.507-13.53 15.234-28.858 15.234-13.409 0-24.681-5.149-27.959-12.132-.466-.996-.77-2.03-.894-3.091h-.004c0-.004-.001-.008-.002-.011h-.143c-.994 8.507-13.53 15.234-28.858 15.234-13.409 0-30.785-9.008-30.785-15.234 0 6.04-15.766 15.234-27.074 15.234-15.328 0-27.864-6.728-28.858-15.234h-.143c-.994 8.507-13.53 15.234-28.858 15.234s-27.864-6.728-28.858-15.234h-.143c-.994 8.507-13.53 15.234-28.858 15.234s-27.864-6.728-28.858-15.234h-.143c-.994 8.507-13.53 15.234-28.858 15.234s-27.86-6.727-28.853-15.234H0v79.334h231.44v.011h515.299V442.05c-5.232 2.944-12.445 4.767-20.416 4.767z"/><g class="st2"><path class="st29" d="M44.834 423.973l39.732 63.402h90.915l1.066-63.402z"/><path class="st30" d="M316.375 423.973H175.481v63.402h88.565z"/><path class="st31" d="M64.287 416.427h111.046V227.076C79.96 296.428 64.287 416.427 64.287 416.427z"/><path class="st32" d="M183.16 251.206v164.439h96.436c0 .001-13.609-104.211-96.436-164.439z"/><path class="st7" d="M52.225 435.768l7.158 11.421h117.164v-11.421z"/><path class="st33" d="M306.704 435.768H175.481v11.421h121.731z"/></g><path class="st34" d="M730.679 466.094h-.142c-.349 2.982-2.121 5.744-4.931 8.077v-.009c-5.205 4.318-13.982 7.154-23.934 7.154-13.408 0-24.68-5.148-27.958-12.131-.466-.997-.77-2.03-.894-3.091h-.004c0-.004-.002-.008-.002-.012h-.142c-.996 8.507-13.532 15.234-28.859 15.234-13.408 0-24.68-5.148-27.958-12.131-.466-.997-.77-2.03-.894-3.091h-.004c0-.004-.002-.008-.002-.012h-.142c-.996 8.507-13.532 15.234-28.859 15.234-13.408 0-24.681-5.148-27.959-12.132-.465-.997-.77-2.029-.893-3.09h-.004c0-.004-.002-.008-.002-.012h-.142c-.995 8.507-13.532 15.234-28.859 15.234-13.408 0-24.681-5.148-27.959-12.132-.465-.997-.77-2.029-.893-3.09h-.004c0-.004-.002-.008-.002-.012h-.142c-.996 8.507-13.532 15.234-28.859 15.234-13.408 0-24.68-5.148-27.958-12.131-.466-.997-.77-2.03-.894-3.091h-.004c0-.004-.002-.008-.002-.012h-.142c-.996 8.507-13.532 15.234-28.859 15.234-13.408 0-24.68-5.148-27.958-12.131-.466-.997-.77-2.03-.894-3.091h-.004c0-.004-.002-.008-.002-.012h-.142c-.996 8.507-13.532 15.234-28.859 15.234-13.409 0-24.681-5.148-27.959-12.131-.466-.997-.77-2.03-.894-3.091h-.004c0-.004-.001-.008-.002-.012h-.143c-.994 8.507-13.53 15.234-28.858 15.234-13.409 0-24.681-5.148-27.959-12.131-.466-.997-.77-2.03-.894-3.091h-.004c0-.004-.001-.008-.002-.012h-.143c-.994 8.507-13.53 15.234-28.858 15.234-13.409 0-30.098-3.765-30.098-15.234 0 9.624-16.452 15.234-27.76 15.234-15.328 0-27.864-6.727-28.858-15.234h-.143c-.994 8.507-13.53 15.234-28.858 15.234-15.328 0-27.864-6.727-28.858-15.234h-.143c-.994 8.507-13.53 15.234-28.858 15.234-15.328 0-27.864-6.727-28.858-15.234h-.143c-.994 8.507-13.53 15.234-28.858 15.234-2.548 0-5.015-.19-7.368-.539v64.639h206.79v.011h545.374v-64.639c-11.798-1.751-20.651-7.602-21.48-14.694z"/><g class="st2"><path class="st35" d="M611.269 421.688s-19.839.502-21.618 3.41c-.93 1.522 4.512 4.174 7.805 8.265 3.004 3.731 3.762 9.024 5.437 8.543 3.514-1.011 8.376-20.218 8.376-20.218z"/><path class="st4" d="M605.609 424.78c3.759 4.771 10.715 5.559 16.785.777 6.068-4.782 7.604-15.033 5.193-18.093-2.412-3.061-12.738-3.967-18.808.814-6.068 4.783-6.931 11.73-3.17 16.502z"/><g><circle class="st11" cx="618.911" cy="410.853" r="2.846"/><circle class="st36" cx="618.911" cy="410.853" r="1.511"/><circle class="st11" cx="617.822" cy="410.573" r=".897"/></g></g><g class="st2"><path class="st35" d="M442.569 472.083s31.92.808 34.782 5.488c1.498 2.449-7.258 6.715-12.559 13.298-4.832 6.003-6.052 14.521-8.747 13.746-5.656-1.628-13.476-32.532-13.476-32.532z"/><path class="st4" d="M451.674 477.059c-6.049 7.677-17.241 8.945-27.005 1.251-9.765-7.694-12.235-24.187-8.355-29.111 3.881-4.925 20.494-6.383 30.261 1.31 9.763 7.694 11.151 18.872 5.099 26.55z"/><g><circle class="st11" cx="430.272" cy="454.65" r="4.579"/><circle class="st36" cx="430.272" cy="454.65" r="2.431"/><circle class="st11" cx="432.024" cy="454.199" r="1.443"/></g></g></svg>