<?xml version="1.0" encoding="utf-8"?>
<!-- Generator: Adobe Illustrator 18.1.1, SVG Export Plug-In . SVG Version: 6.00 Build 0)  -->
<svg version="1.1" id="Layer_1" xmlns="http://www.w3.org/2000/svg" xmlns:xlink="http://www.w3.org/1999/xlink" x="0px" y="0px"
	 viewBox="0 0 960 700" style="enable-background:new 0 0 960 700;" xml:space="preserve">
<style type="text/css">
	.st0{opacity:0.5;clip-path:url(#SVGID_2_);}
	.st1{fill:#0071BC;}
	.st2{clip-path:url(#SVGID_2_);}
	.st3{fill:#FFFFFF;}
	.st4{fill:#A8A382;}
	.st5{fill:#E5E1BC;}
	.st6{fill:#89161E;}
	.st7{fill:#7B5D3B;}
	.st8{fill:#C98A0D;}
	.st9{fill:#434A3F;}
	.st10{fill:#808080;}
	.st11{fill:#4D4D4D;}
	.st12{fill:#82837C;}
	.st13{fill:#E4E0BB;}
</style>
<g>
	<defs>
		<rect id="SVGID_1_" width="960" height="700"/>
	</defs>
	<use xlink:href="#SVGID_1_"  style="overflow:visible;fill:#29ABE2;"/>
	<clipPath id="SVGID_2_">
		<use xlink:href="#SVGID_1_"  style="overflow:visible;"/>
	</clipPath>
	<g id="layer1_1_" transform="translate(-314.39464,-274.3971)" inkscape:label="Layer 1" inkscape:groupmode="layer" class="st0">
		<g id="svg" inkscape:connector-curvature="0">
			<path class="st1" d="M1172.715,643.647c0-66.144-17.101-128.285-47.09-182.283c127.826-289.296-136.967-246.923-151.71-244.038
				c-56.099,10.977-107.999,28.601-155.873,50.941c-7.06-0.398-14.162-0.616-21.319-0.616
				c-178.666,0-328.22,124.617-366.496,291.674c94.169-105.645,160.071-148.271,199.537-165.33
				c-6.299,5.629-12.466,11.32-18.532,17.055c-2.019,1.906-3.964,3.84-5.956,5.758c-4,3.848-7.991,7.699-11.889,11.585
				c-2.319,2.312-4.576,4.643-6.861,6.97c-3.458,3.52-6.908,7.036-10.283,10.576c-2.397,2.514-4.736,5.036-7.091,7.555
				c-3.154,3.376-6.288,6.756-9.364,10.147c-2.39,2.635-4.74,5.27-7.087,7.913c-2.916,3.282-5.805,6.565-8.654,9.855
				c-2.362,2.729-4.705,5.457-7.021,8.19c-2.701,3.189-5.368,6.377-8.007,9.566c-2.335,2.822-4.662,5.641-6.947,8.459
				c-2.471,3.048-4.888,6.093-7.301,9.133c-2.339,2.947-4.678,5.89-6.962,8.833c-2.175,2.803-4.288,5.594-6.416,8.389
				c-2.401,3.158-4.822,6.315-7.161,9.457c-1.672,2.249-3.278,4.475-4.919,6.717c-14.856,20.271-28.43,40.151-40.689,59.249
				c-0.031,0.047-0.062,0.094-0.09,0.14c-3.228,5.029-6.342,9.983-9.395,14.895c-0.164,0.265-0.335,0.534-0.499,0.803
				c-3.056,4.931-6.007,9.777-8.884,14.571c-0.101,0.168-0.207,0.339-0.308,0.507c-7.734,12.907-14.907,25.35-21.366,37.056
				c-33.864,61.369-50.349,104.245-51.062,106.791c-106.935,382.303,226.812,220.86,273.384,196.761
				c50.146,24.773,106.6,38.717,166.32,38.717c163.49,0,302.589-104.358,354.365-250.092l-197.56,0
				c-29.232,49.386-85.511,82.836-150.166,82.836c-94.73,0-171.52-71.773-171.52-160.313l537.779,0
				C1171.658,676.217,1172.715,660.055,1172.715,643.647L1172.715,643.647z M1102.477,273.647
				c32.378,21.853,58.348,56.173,13.749,171.75c-42.775-68.791-107.13-122.754-183.62-152.415
				C967.401,276.176,1053.571,240.633,1102.477,273.647z M414.384,980.158c-26.371-27.046-31.033-92.917,27.159-212.95
				c29.369,84.439,87.974,155.191,163.724,200.094C567.595,988.036,467.583,1034.721,414.384,980.158z M631.011,589.255
				c3.006-86.053,77.898-154.953,169.914-154.953c92.013,0,166.909,68.9,169.914,154.953L631.011,589.255L631.011,589.255z"/>
		</g>
	</g>
	<g class="st2">
		<g>
			<path class="st3" d="M571.744,301.315c1.306,0,2.747,0.19,4.333,0.605c16.478,4.316,37.453,19.224,46.778,22.755
				c9.325,3.531,18.741,2.746,23.842,13.339c5.1,10.593,11.377,20.401,6.277,27.071c-1.036,1.354-1.757,1.947-2.48,1.947
				c-0.753,0-1.508-0.644-2.62-1.74c6.729,15.597,12.993,31.404,19.335,47.169l6.549-1.513l2.449,10.6l-4.867,1.124
				c0.361,0.887,0.719,1.775,1.081,2.661c9.928,24.497,18.95,49.24,30.505,73.064c9.038,18.633,20.513,36.017,29.47,54.62
				c0.387,0.804,0.759,1.62,1.118,2.443c4.516,3.994,8.812,8.276,12.928,12.536c8.582,8.881,16.96,17.959,25.152,27.201
				c2.285,0.489,4.574,0.806,6.8,0.806c3.294,0,6.45-0.694,9.251-2.547c4.057-2.684,6.085-6.871,7.509-11.554
				c-4.709-3.163-9.117-6.895-13.127-10.918c-8.214-8.241-15.195-17.727-22.314-27.024c-3.321-4.338-7.543-8.507-10.283-13.253
				c-2.851-4.939-5.825-9.895-8.57-14.938c-5.774-10.608-10.873-21.799-14.341-33.555c-1.276-4.325-2.351-8.758-2.89-13.276
				c-0.106-0.89-0.999-9.299,0.08-9.587c0.909-0.243,2.092-0.37,3.504-0.37c13.222,0.001,46.287,11.176,58.211,42.99
				c-13.614-52.133,31.994-102.097,43.175-111.966c1.114,22.109,4.83,42.9-4.945,86.715c10.111-34.555,38.145-74.617,47.208-76.591
				c3.236,15.65,6.541,38.526-6.82,94.088c2.195-6.573,5.7-12.675,9.084-18.625c4.658-8.191,9.848-16.043,15.518-23.481
				c3.755-4.926,7.719-9.671,11.878-14.213c2.957-3.229,8.288-10.501,13.027-10.501c0.073,0,0.148,0.002,0.221,0.005
				c1.178,5.723,0.488,12.666,0.174,18.519c-0.326,6.085-0.998,12.156-2.004,18.169c-1.985,11.866-5.27,23.51-9.769,34.612
				c-7.676,18.94-13.99,38.534-24.439,55.638c-4.153,6.799-8.96,13.206-14.765,19.021c-9.957,9.976-22.624,17.554-36.14,18.365
				c-2.617,6.235-5.235,12.471-7.853,18.706c-1.717,4.089-3.603,8.395-7.229,10.95c-3.198,2.253-7.26,2.788-11.144,3.256
				c-1.231,0.148-2.463,0.297-3.694,0.446c2.013,2.49,4.016,4.988,6.001,7.5c-5.96-3.033-12.439-5.027-19.065-5.924
				c-1.265,0.153-2.53,0.305-3.795,0.458c-1.799,0.217-3.643,0.421-5.461,0.421c-0.885,0-1.764-0.048-2.628-0.167
				c19.99,19.69,37.385,42.013,51.576,66.219c3.713,6.334,7.287,13.046,7.862,20.366c1.104,14.042-9.367,26.859-21.897,33.292
				s-26.904,7.946-40.825,10.087c-70.549,10.85-137.838,40.364-209.074,44.871c-4.147-41.094-3.531-82.666,1.833-123.619
				c-4.286,4.703-8.571,9.406-12.857,14.108c2.454-14.378,3.051-29.33,4.013-44.115c-29.163-11.775-58.327-23.55-87.49-35.325
				c3.994,14.828,6.461,24.002,6.528,24.251c1.854,6.896-2.232,13.989-9.128,15.843c-1.125,0.302-2.255,0.446-3.366,0.447
				c-5.704,0-10.925-3.804-12.477-9.575c-1.488-5.532-3.018-11.222-4.58-17.025c-2.854,1.127-5.568,1.664-8.18,1.664
				c-5.818,0-11.124-2.666-16.3-7.408c-12.823-11.749-20.408-27.183-24.29-43.954c-1.72-7.43-3.92-15.152-3.497-22.85
				c0.513-9.337,11.166-31.787,21.89-38.464l5.38,18.337c-21.826-80.732-42.528-156.775-45.13-164.787
				c-1.967-4.697-1.039-10.318,2.785-14.142c2.524-2.524,5.833-3.786,9.142-3.786c3.309,0,6.618,1.262,9.142,3.786
				c2.637,2.636,2.799,3.21,6.934,17.9c2.049,7.274,4.988,17.89,8.736,31.55c6.304,22.975,14.991,54.903,25.819,94.897
				c0.652,2.407,1.303,4.814,1.954,7.219c0.002,0,0.004,0,0.006,0c0.05,0,0.094,0.005,0.129,0.021
				c15.383,6.868,10.951,27.898,10.951,27.898c-0.987,0-2.214-0.068-3.585-0.183c1.236,4.574,2.456,9.092,3.656,13.536
				c3.833,0.466,7.629,1.231,11.34,2.299c0.598,0.172-4.038,8.719-4.503,9.428c-0.822,1.254-1.746,2.409-2.721,3.519
				c0.215,0.797,0.429,1.591,0.642,2.38c26.502,15.612,61.731,43.769,91.839,46.401c0.35,0.031,0.69,0.046,1.021,0.046
				c10.194,0,11.706-14.203,20.053-23.778c0.096-0.11,0.168-0.191,0.241-0.272c-0.019-0.024-0.039-0.048-0.058-0.072
				c-0.056,0.109-0.118,0.217-0.174,0.326c-0.732,0.503-1.471,0.994-2.198,1.506l1.849-2.493c-0.6-0.765-1.176-1.532-1.719-2.322
				c-0.961,0.528-2.013,0.85-3.1,0.85c-0.177,0-0.355-0.009-0.533-0.026c-1.788-0.176-3.401-1.186-4.698-2.429
				c-8.596-8.23-4.031-24.034-11.838-33.017c-0.854-0.983-1.889-1.88-3.149-2.208c-0.476-0.124-0.974-0.166-1.482-0.166
				c-1.088,0-2.219,0.193-3.266,0.193c-0.994,0-1.911-0.174-2.644-0.852c-1.17-1.084-1.161-2.912-0.992-4.498
				c0.369-3.474,1.088-6.912,2.141-10.243c1.068-3.376,2.479-6.96,2.077-10.368c-0.49-0.148-0.962-0.352-1.399-0.64
				c-2.432-1.604-2.949-4.924-2.963-7.838c-0.009-1.787,0.14-3.722,1.306-5.075c0.616-0.715,1.449-1.185,2.319-1.573
				c-0.899-0.955-2.019-1.745-3.267-2.396c-3.364,2.217-6.573,4.661-9.525,7.4c-2.789,2.589-5.657,5.594-9.434,6.053
				c-0.34,0.041-0.68,0.061-1.019,0.061c-2.301,0-4.561-0.887-6.718-1.765c-4.486-1.826-8.346-3.936-10.441-8.509
				c-1.976-4.311-2.436-9.216-2.704-13.895c-0.133-2.314-0.111-4.651,0.05-6.984l-0.585,3.147l-6.626-3.422
				c-11.875-6.13-31.939-23.282-22.881-44.319c0.821-1.906,1.67-3.802,2.571-5.672c2.531-5.253,5.481-10.522,9.74-14.584
				c4.19-3.996,9.772-6.223,15.461-6.98c2.445-0.325,4.98-0.476,7.538-0.476c4.432,0,8.928,0.452,13.129,1.232
				c5.435,1.009,10.757,3.299,13.819,8.132c0.642,1.012,1.138,2.056,1.523,3.11c1.178-0.443,2.369-0.811,3.566-1.145
				c-0.244-5.68,1.174-11.204,5.284-17.661c10.045-15.785,3.039-18.78,6.564-26.676c-2.462,3.289-4.77,7.133-5.78,8.816
				c-1.072,1.787-5.154,3.736-8.802,3.736c-4.361,0-8.1-2.788-5.322-11.975c5.1-16.87,9.024-14.516,4.316-22.363
				s5.885-21.186,18.44-22.363c12.555-1.177,21.186-10.985,18.047-15.693C559.116,318.067,559.484,301.315,571.744,301.315
				 M523.452,447.115c1.38-0.324,2.784-0.584,4.21-0.77c2.2-0.425,4.347-0.637,6.445-0.679c-1.311-3.635-2.464-6.944-3.324-10.064
				c-1.486,0.569-2.929,1.216-4.286,1.922c-0.581,4.206-2.039,7.461-2.339,8.098L523.452,447.115 M429.169,581.06
				c0.138-0.073,0.279-0.141,0.418-0.213c-0.001-0.005-0.003-0.01-0.004-0.015C429.444,580.907,429.308,580.986,429.169,581.06
				 M571.744,295.315C571.744,295.315,571.744,295.315,571.744,295.315c-6.366,0-11.532,3.103-14.547,8.737
				c-3.682,6.88-3.325,15.973-0.719,20.794c-0.833,1.869-5.378,6.468-13.133,7.195c-9.406,0.882-18.584,7.125-22.84,15.536
				c-2.825,5.583-2.892,11.374-0.184,15.888c0.756,1.26,1.068,1.911,1.197,2.229c-0.182,0.477-0.597,1.339-0.942,2.057
				c-1.247,2.592-3.13,6.509-5.17,13.254c-1.932,6.391-1.542,11.475,1.159,15.114c2.201,2.965,5.719,4.598,9.907,4.598
				c1.92,0,4.11-0.369,6.214-1.085c-0.721,1.683-1.764,3.639-3.259,5.987c-2.267,3.562-3.895,7.015-4.919,10.483
				c-3.404-2.733-7.791-4.608-13.116-5.596c-4.698-0.872-9.616-1.333-14.224-1.333c-2.892,0-5.694,0.178-8.329,0.528
				c-7.457,0.992-13.962,3.961-18.811,8.586c-5.118,4.882-8.435,10.99-11.004,16.321c-0.853,1.77-1.728,3.701-2.677,5.904
				c-4.805,11.159-3.358,22.764,4.183,33.558c7.491,10.722,18.317,16.844,21.456,18.464l3.91,2.019
				c0.004,0.084,0.009,0.168,0.014,0.251c0.284,4.967,0.793,10.714,3.239,16.052c2.979,6.5,8.314,9.4,13.634,11.566
				c2.289,0.932,5.424,2.207,8.98,2.207c0.586,0,1.172-0.035,1.742-0.104c5.383-0.654,9.079-4.126,12.049-6.916
				c0.021-0.02,0.042-0.039,0.063-0.059c0.505,3.545,1.825,6.321,3.944,8.294c-0.268,1.223-0.712,2.579-1.148,3.909
				c-0.159,0.485-0.316,0.966-0.467,1.444c-1.173,3.708-1.976,7.55-2.387,11.418c-0.164,1.546-0.664,6.251,2.882,9.535
				c1.755,1.626,4.016,2.45,6.72,2.45c0.782,0,1.497-0.063,2.128-0.118c0.352-0.031,0.688-0.06,0.954-0.071
				c0.074,0.072,0.169,0.172,0.286,0.306c2.627,3.022,3.356,7.936,4.128,13.139c1.016,6.846,2.167,14.606,8.089,20.276
				c1.618,1.549,3.398,2.686,5.253,3.369c-1.19,2.009-2.228,4.007-3.205,5.888c-3.611,6.953-5.126,9.118-7.562,9.118
				c-0.16,0-0.323-0.007-0.498-0.023c-21.5-1.88-46.744-18.298-69.017-32.783c-5.642-3.669-11.036-7.177-16.192-10.339
				c0.56-0.889,1.991-3.572,2.804-5.163c2.278-4.455,3.327-6.72,2.292-9.509c-0.668-1.801-2.167-3.193-4.008-3.723
				c-2.685-0.773-5.441-1.406-8.232-1.892l-0.93-3.442c0.974-0.836,1.682-1.985,1.962-3.315c0.135-0.641,1.294-6.466,0.37-13.403
				c-1.213-9.107-5.424-15.938-12.24-19.926l-1.249-4.615c-10.847-40.061-19.536-71.996-25.825-94.917
				c-3.771-13.741-6.714-24.369-8.747-31.589c-4.275-15.185-4.722-16.772-8.468-20.517c-3.574-3.574-8.328-5.543-13.384-5.543
				c-5.056,0-9.81,1.969-13.385,5.544c-5.391,5.391-7.018,13.386-4.183,20.442c2.223,7.006,16.246,58.138,38.885,141.769
				c-11.188,9.58-20.819,30.632-21.375,40.759c-0.413,7.527,1.288,14.647,2.934,21.533c0.24,1.005,0.479,2.005,0.709,2.999
				c4.508,19.477,13.283,35.298,26.082,47.025c6.598,6.046,13.256,8.984,20.354,8.984c1.302,0,2.619-0.103,3.946-0.309l3.021,11.227
				c2.22,8.253,9.733,14.017,18.271,14.017c1.661-0.001,3.315-0.221,4.923-0.653c4.884-1.313,8.963-4.449,11.487-8.83
				c2.524-4.381,3.191-9.483,1.878-14.365l-0.026-0.096c-0.192-0.715-1.397-5.195-3.37-12.522l1.821,0.735l70.482,28.458
				c-0.062,1.015-0.124,2.031-0.186,3.047c-0.731,12.015-1.487,24.439-3.48,36.115c-0.448,2.626,0.889,5.233,3.283,6.402
				c0.839,0.41,1.739,0.608,2.63,0.608c1.65,0,3.272-0.68,4.437-1.959l0.371-0.407c-3.4,35.384-3.321,71.117,0.248,106.479
				c0.311,3.082,2.908,5.398,5.964,5.398c0.128,0,0.255-0.004,0.384-0.012c41.324-2.614,81.738-13.629,120.821-24.28
				c28.955-7.891,58.896-16.051,88.786-20.648c1.632-0.251,3.27-0.493,4.91-0.736c12.689-1.877,25.81-3.817,37.743-9.944
				c13.498-6.93,26.506-21.708,25.139-39.1c-0.682-8.68-4.832-16.387-8.668-22.93c-12.118-20.67-26.496-39.958-42.846-57.493
				c5.018,0.946,9.824,2.579,14.323,4.868c0.866,0.441,1.797,0.653,2.719,0.653c1.753,0,3.473-0.768,4.644-2.197
				c1.632-1.991,1.796-4.775,0.482-6.928c2.419-0.62,4.909-1.579,7.171-3.172c5.147-3.626,7.55-9.352,9.305-13.532l4.347-10.354
				l2.129-5.072c12.49-1.794,25.221-8.698,36.23-19.728c5.794-5.805,10.909-12.39,15.639-20.132
				c8.218-13.454,13.972-28.408,19.537-42.87c1.728-4.491,3.515-9.135,5.342-13.643c4.661-11.5,8.068-23.57,10.126-35.875
				c1.044-6.237,1.743-12.575,2.078-18.839c0.045-0.848,0.099-1.719,0.153-2.606c0.339-5.523,0.723-11.783-0.442-17.443
				c-0.552-2.681-2.849-4.649-5.583-4.783c-0.17-0.008-0.343-0.013-0.514-0.013c-6.72,0-12.057,6.205-15.953,10.736
				c-0.555,0.646-1.08,1.256-1.499,1.713c-4.259,4.651-8.372,9.572-12.225,14.628c-2.23,2.926-4.394,5.924-6.484,8.981
				c1.299-9.089,2.055-17.41,2.285-25.068c0.445-14.791-1.148-24.829-2.935-33.472c-0.324-1.569-1.263-2.943-2.606-3.816
				c-0.981-0.637-2.118-0.969-3.269-0.969c-0.426,0-0.854,0.045-1.277,0.137c-8.576,1.868-20.583,18.775-26.976,28.688
				c-2.326,3.606-4.563,7.298-6.688,11.027c0.725-13.559-0.016-24.306-0.707-34.345c-0.235-3.414-0.457-6.639-0.623-9.934
				c-0.116-2.302-1.54-4.333-3.663-5.228c-0.751-0.316-1.542-0.47-2.328-0.471c-1.437,0-2.855,0.516-3.972,1.502
				c-6.684,5.9-20.983,21.333-32.176,41.748c-6.526,11.902-11.058,23.809-13.472,35.392c-1.022,4.903-1.664,9.756-1.928,14.54
				c-16.369-17.7-39.082-24.204-49.839-24.205c-1.928,0-3.628,0.193-5.053,0.573c-5.345,1.428-5.075,7.417-4.929,10.635
				c0.125,2.771,0.438,5.434,0.441,5.46c0.517,4.331,1.5,8.863,3.093,14.263c3.246,11.001,8.095,22.36,14.826,34.725
				c1.998,3.67,4.121,7.307,6.174,10.824c0.828,1.418,1.654,2.832,2.469,4.246c2.063,3.574,4.691,6.67,7.233,9.664
				c1.247,1.469,2.425,2.857,3.483,4.237c0.811,1.059,1.62,2.121,2.43,3.183c6.314,8.283,12.842,16.848,20.398,24.428
				c3.267,3.278,6.663,6.253,10.137,8.883c-0.985,2.018-2.131,3.392-3.58,4.35c-1.577,1.043-3.521,1.551-5.941,1.551
				c-1.118,0-2.331-0.105-3.673-0.32c-7.942-8.919-15.997-17.611-23.964-25.856c-4.756-4.922-8.596-8.67-12.288-11.987
				c-0.223-0.491-0.446-0.967-0.667-1.426c-4.612-9.579-9.917-18.908-15.048-27.929c-4.937-8.681-10.042-17.658-14.43-26.706
				c-8.482-17.488-15.75-35.899-22.778-53.704c-2-5.068-4.057-10.277-6.136-15.453c0.756-0.477,1.403-1.122,1.885-1.894
				c0.843-1.35,1.116-2.979,0.757-4.529l-2.449-10.6c-0.641-2.774-3.11-4.651-5.841-4.651c-0.447,0-0.901,0.05-1.356,0.155
				l-1.546,0.357c-0.296-0.737-0.592-1.475-0.888-2.212c-4.356-10.853-8.833-22.007-13.478-33.029
				c0.538-0.566,0.95-1.104,1.244-1.489c6.676-8.73,1.252-19.536-3.533-29.069c-0.699-1.392-1.421-2.831-2.104-4.249
				c-4.993-10.371-13.28-12.515-20.591-14.406c-2.28-0.59-4.434-1.147-6.532-1.942c-3.032-1.148-8.147-4.055-13.562-7.133
				c-10.117-5.75-22.708-12.905-33.82-15.815C575.567,295.584,573.598,295.315,571.744,295.315L571.744,295.315L571.744,295.315z"/>
		</g>
	</g>
	<g class="st2">
		<g>
			<path class="st4" d="M568.656,582.722c-19.789,31.99-13.75,72.892-20.08,109.972c4.286-4.703,8.571-9.406,12.857-14.109
				c-5.364,40.953-5.981,82.525-1.833,123.619c71.236-4.507,138.525-34.021,209.074-44.871c13.922-2.141,28.295-3.654,40.825-10.087
				c12.53-6.433,23.002-19.25,21.897-33.292c-0.576-7.32-4.149-14.032-7.862-20.366c-14.443-24.636-32.199-47.327-52.638-67.272
				c10.975-0.926,22.196,1.27,32.012,6.266c-17.734-22.449-36.587-44.013-56.466-64.586c-14.299-14.797-30.741-29.878-51.196-32.121
				c-15.703-1.722-31.071,4.49-45.649,10.578c-29.88,12.478-60.031,25.104-86.497,43.761"/>
		</g>
		<g>
			<path class="st4" d="M440.612,603.368c41.372,16.704,82.743,33.408,124.115,50.113c5.829-10.072,4.781-60.164,6.851-71.616
				c-15.245,8.267-13.844,31.776-27.363,30.594c-34.069-2.978-74.701-38.65-101.818-51.832L440.612,603.368z"/>
		</g>
		<g>
			<path class="st5" d="M732.396,553.018c-8.958-18.603-20.432-35.986-29.47-54.62c-11.555-23.825-20.577-48.567-30.505-73.064
				c-8.177-20.007-15.985-40.197-24.548-60.044c-8.631-20.009-48.613-25.724-52.054-29.647c-3.44-3.923-47.206,34.355-53.484,44.163
				c-6.277,9.808,3.139,11.77-7.847,29.032c-10.985,17.263-2.746,27.856,5.1,52.572c7.842,24.703,20.592,94.31,20.606,94.388
				c0.312,1.707-1.004,4.805-1.21,6.562c-0.618,5.268-0.546,10.759,0.859,15.902c1.675,6.132,5.256,9.413,8.923,14.27
				c4.149,5.495,6.667,12.108,8.268,18.756c2.182,9.06,2.805,18.42,4.523,27.58c1.296,6.907,3.803,14.459,10.051,17.675
				c0.898,0.462,1.91,0.825,2.903,0.643c2.217-0.404,3.08-3.088,3.363-5.324c2.225-17.571-4.305-36.211,2.064-52.737
				c3.478-0.517,5.805,3.367,7.182,6.602c3.184,7.485,6.71,14.823,10.565,21.986c0.715,1.329,1.689,2.818,3.195,2.917
				c0.961,0.063,1.859-0.49,2.567-1.144c2.996-2.768,3.59-7.252,3.539-11.331c-0.096-7.65-1.795-15.299-0.914-22.898
				c0.202-1.744,0.6-3.507,1.169-5.212c6.486-2.169,12.611-4.606,18.376-7.23c1.654,4.743,2.332,9.807,3.846,14.612
				c3.315,10.524,10.48,19.329,17.488,27.851c0.634,0.771,1.301,1.568,2.209,1.984c1.875,0.859,4.189-0.265,5.31-1.995
				c1.122-1.73,1.327-3.885,1.403-5.945c0.19-5.16-0.234-10.342-1.26-15.402c-0.508-2.504-1.167-5.043-0.862-7.58
				c0.305-2.537,1.851-5.128,4.322-5.776c4.188-1.098,7.457,3.523,9.319,7.432c3.308,6.946,6.617,13.893,9.925,20.839
				c3.152,6.618,6.436,13.417,11.876,18.331c0.933,0.843,1.993,1.654,3.241,1.808c1.961,0.242,3.804-1.283,4.552-3.112
				c0.748-1.829,0.64-3.884,0.436-5.85c-2.639-25.414-19.14-49.302-15.079-74.527c0.127-0.791,0.29-1.613,0.785-2.243
				c1.215-1.545,3.839-1.072,5.165,0.378c1.327,1.45,1.743,3.483,2.251,5.381c2.607,9.74,9.436,18.658,18.904,22.127
				c2.041,0.748,4.564,1.155,6.194-0.283c1.071-0.946,1.445-2.443,1.653-3.857C738.504,568.798,735.988,560.478,732.396,553.018z"/>
		</g>
		<g>
			<path class="st6" d="M622.855,349.785c0,0-23.631-7.062-40.501,7.454c-16.87,14.516-9.115,34.918-20.401,35.702
				c-11.287,0.785-10.985-7.454-12.947-14.516c-1.962-7.062-11.378,8.631-13.732,12.555s-19.224,8.631-14.124-8.239
				c5.1-16.87,9.024-14.516,4.316-22.363c-4.708-7.847,5.885-21.186,18.44-22.363c12.555-1.177,21.186-10.985,18.047-15.693
				s-2.354-24.717,14.124-20.401c16.478,4.316,37.453,19.224,46.778,22.755c9.325,3.531,18.741,2.746,23.841,13.339
				c5.1,10.593,11.378,20.401,6.277,27.071C647.873,371.755,650.409,359.985,622.855,349.785z"/>
		</g>
		<g>
			<path class="st6" d="M535.264,520.581c1.482,3.996-0.31,8.36-1.595,12.423c-1.053,3.332-1.772,6.769-2.141,10.243
				c-0.169,1.586-0.178,3.414,0.992,4.498c1.865,1.727,4.931,0.185,7.391,0.825c1.26,0.328,2.295,1.225,3.149,2.208
				c7.807,8.982,3.242,24.786,11.838,33.017c1.297,1.242,2.911,2.252,4.698,2.429c2.857,0.281,5.571-1.669,7.005-4.156
				s1.83-5.423,2.086-8.282c0.489-5.437,0.577-10.91,0.265-16.36c-0.1-1.753-0.232-3.573,0.407-5.208
				c1.52-3.884,6.652-4.969,10.732-4.102c1.166,0.248,2.338,0.608,3.525,0.498c2.232-0.206,4.036-2.088,4.776-4.204
				s0.607-4.43,0.34-6.656c-1.353-11.301-5.799-23.273-0.952-33.571c-19.006-4.242-40.022,2.075-53.539,16.093L535.264,520.581z"/>
		</g>
		<path class="st7" d="M516.701,502.038c0.991-0.661,40.622-23.611,56.64-10.897l4.293,6.769c0,0-20.972,12.715-21.962,12.88
			c-0.991,0.165-19.252,6.272-18.99,5.394C540.976,501.781,516.701,502.038,516.701,502.038z"/>
		<path class="st8" d="M527.662,446.344c-11.928,1.56-22.381,7.964-28.677,18.277c-5.39,8.828-7.671,19.56-7.083,29.839
			c0.268,4.679,0.728,9.584,2.704,13.895c2.096,4.573,5.955,6.683,10.442,8.509c2.474,1.007,5.085,2.026,7.737,1.704
			c3.777-0.459,6.645-3.465,9.434-6.053c4.744-4.402,10.152-8.044,15.8-11.202c5.528-3.091,11.445-5.774,17.75-6.382
			c3.136-0.302,6.296-0.084,9.439,0.135c1.624,0.113,3.248,0.226,4.873,0.339c1.647,0.115,0.969,1.449,0.127,2.179
			c-0.979,0.849-2.445,1.117-3.68,1.329c-10.452,1.793-20.817,4.265-30.669,8.24c-1.158,0.467-2.352,0.984-3.167,1.93
			c-1.166,1.354-1.315,3.289-1.306,5.075c0.014,2.914,0.531,6.234,2.963,7.838c1.882,1.241,4.356,1.049,6.553,0.542
			c4.392-1.014,8.458-3.07,12.552-4.954c12.2-5.613,25.03-9.98,38.288-12.206C593.746,505.044,570.177,438.14,527.662,446.344z"/>
		<path class="st9" d="M519.147,443.254c0,0-26.698,11.229-31.865,39.024c0,0-29.741-15.352-20.333-37.203
			c7.013-16.289,12.343-22.624,23.275-23.915c-0.134,1.876-0.211,3.959-0.211,6.162c0,8.129,1.019,14.719,2.276,14.719
			c1.257,0,2.276-6.59,2.276-14.719c0-2.303-0.084-4.473-0.23-6.414c2.763-0.038,5.842,0.142,9.334,0.496
			C529.465,421.403,519.147,443.254,519.147,443.254z M632.647,436.274c-1.517,12.746-8.194,24.582-16.691,27.92
			c-8.497,3.338-25.795,11.229-40.969-1.821c-15.174-13.05-16.691-13.329-16.691-13.329s-24.882-27.819,6.373-34.621
			c0,0,19.726-10.015,45.521-5.766C635.985,412.906,634.164,423.528,632.647,436.274z M598.308,437.452
			c-2.451-12.671-6.506-22.542-9.057-22.049c-2.551,0.493-2.631,11.165-0.18,23.836c2.451,12.671,6.506,22.542,9.057,22.049
			S600.759,450.123,598.308,437.452z"/>
		<path class="st10" d="M611.097,403.143c-1.072-0.162-2.127-0.303-3.156-0.429c-12.519-1.531-25.279,0.075-37.371,3.47
			c-0.364,0.102-0.727,0.206-1.089,0.311c-9.181,2.669-21.978,6.617-25.244,16.696c-0.164,0.508-0.295,1.018-0.411,1.53
			c-4.425-0.576-8.779,0.05-13.031,1.35c-1.736,0.411-3.455,0.936-5.154,1.575c-0.385-1.055-0.882-2.098-1.523-3.11
			c-5.013-7.91-16.05-8.872-24.56-9.435c-5.646-0.374-11.439,0.144-16.667,2.309c-9.72,4.024-16.411,13.3-20.193,23.116
			c-2.964,7.693-4.238,16.258-0.731,23.98c3.364,7.408,9.013,13.396,15.526,18.169c2.298,1.684,4.715,3.22,7.249,4.528l6.626,3.422
			l1.364-7.332c4.536-24.407,28.338-34.832,28.565-34.928l1.956-0.823l0.906-1.918c0.3-0.637,1.759-3.892,2.339-8.098
			c2.4-1.247,5.051-2.347,7.777-3.066c0.092-0.01,0.185-0.02,0.277-0.03c1.919-0.208,4.294-0.719,6.576-0.816
			c0.955,0.035,1.9,0.143,2.829,0.335c2.092,9.435,17.327,23.95,27.417,32.627c6.628,5.7,14.35,8.59,22.952,8.59
			c9.079,0,17.075-3.19,22.365-5.3l1.291-0.513c10.233-4.02,18.337-17.05,20.167-32.422c0,0,0.092-0.771,0.092-0.772
			c0.813-6.825,1.587-14.216-2.197-20.357C630.956,407.542,620.396,404.549,611.097,403.143z"/>
		<path class="st11" d="M503.655,421.602c-4.407-0.307-9.315-0.633-9.32-0.695c0.146,1.941,0.23,4.111,0.23,6.414
			c0,8.129-1.019,14.719-2.276,14.719c-1.257,0-2.276-6.59-2.276-14.719c0-2.203,0.077-4.285,0.211-6.162
			c-11.438,1.351-18.117,11.237-22.159,21.217c-1.538,3.797-2.779,7.783-2.877,11.879c-0.291,12.168,12.086,22.857,22.094,28.022
			c2.995-16.111,14.577-30.29,29.128-37.496c1.298-0.643,2.402-1.445,3.149-2.72c0.6-1.024,0.908-2.191,1.144-3.354
			c1.646-8.105-1.781-15.029-10.27-16.569C509.94,422.048,506.937,421.831,503.655,421.602z"/>
		<path class="st11" d="M610.19,408.657c-11.854-1.952-24.064-0.952-35.627,2.174c-5.795,1.567-11.445,3.666-16.878,6.218
			c-3.59,1.686-6.488,3.802-7.368,7.895c-1.498,6.971,3.432,14.291,7.399,19.537c5,6.611,10.996,12.496,17.27,17.892
			c4.776,4.107,10.399,6.639,16.718,7.098c5.379,0.39,10.782-0.561,15.96-2.069c4.414-1.285,8.772-3.012,12.418-5.811
			c4.26-3.271,7.364-7.889,9.386-12.865c2.957-7.276,5.013-17.073,3.66-25.031c-1.085-6.381-6.044-10.096-11.824-12.259
			C617.724,410.096,613.954,409.277,610.19,408.657z M593.084,436.527c-2.551,0.493-3.932-15.462-6.383-28.133
			c2.585-0.301,2.64-0.707,6.973-0.884C596.125,420.181,595.634,436.034,593.084,436.527z"/>
		<g>
			<g>
				<path class="st4" d="M587.182,394.325c16.98-7.934,36.52-4.817,52.804,3.315c2.391,1.194,4.503-2.397,2.102-3.597
					c-17.734-8.857-38.584-11.924-57.009-3.315C582.653,391.862,584.766,395.454,587.182,394.325L587.182,394.325z"/>
			</g>
		</g>
		<g>
			<g>
				<path class="st12" d="M526.245,435.122c0.657-0.969,1.315-1.937,1.972-2.906c0.599-0.883,1.379-1.779,1.344-2.906
					c-0.057-1.803-2.2-2.715-3.654-1.846c-1.529,0.914-0.137,3.311,1.398,2.392c-0.323,0.032-0.503-0.115-0.54-0.441
					c-0.144,0.229-0.293,0.454-0.448,0.676c-0.244,0.365-0.493,0.727-0.74,1.09c-0.575,0.848-1.151,1.695-1.726,2.543
					C522.849,435.203,525.249,436.59,526.245,435.122L526.245,435.122z"/>
			</g>
		</g>
		<path class="st7" d="M459.132,653.796c-5.704,0-10.925-3.804-12.477-9.575c-28.127-104.598-70.89-262.735-74.708-274.487
			c-1.967-4.697-1.039-10.318,2.785-14.142c5.049-5.049,13.236-5.049,18.284,0c2.637,2.636,2.798,3.21,6.934,17.9
			c2.049,7.274,4.988,17.89,8.736,31.55c6.304,22.975,14.991,54.903,25.819,94.897c18.433,68.083,36.934,136.88,37.119,137.567
			c1.854,6.896-2.232,13.989-9.128,15.843C461.373,653.651,460.243,653.795,459.132,653.796z"/>
		<g>
			<path class="st5" d="M421.59,549.903c12.249-2.946,25.26-2.658,37.367,0.827c0.598,0.172-4.038,8.719-4.503,9.428
				c-1.885,2.876-4.245,5.286-6.747,7.641c-5.549,5.223-11.801,9.701-18.538,13.262c9.585-5.066,20.275-7.86,31.141-7.672
				c0.471,0.008,0.987,0.038,1.335,0.356c0.297,0.271,0.403,0.689,0.472,1.086c1.25,7.216-4.911,14.081-9.984,18.44
				c-4.475,3.844-9.785,6.516-14.859,9.474c3.823-2.229,11.745-1.763,16.065-1.835c4.683-0.078,11.958-0.599,16.175,1.505
				c-4.125,3.205-6.024,8.479-9.537,12.221c-4.501,4.794-9.876,8.769-15.793,11.641c-10.146,4.924-18.523,2.568-26.59-4.823
				c-12.823-11.749-20.408-27.183-24.29-43.954c-1.72-7.43-3.92-15.152-3.497-22.85c0.513-9.337,11.166-31.787,21.89-38.464
				L421.59,549.903z"/>
		</g>
		<path class="st5" d="M436.596,507.179c-1.282-0.572-13.003,9.386-15.088,24.509c0,0,18.999,3.389,26.039,3.39
			C447.547,535.077,451.979,514.047,436.596,507.179z"/>
		<g>
			<g>
				<path class="st13" d="M502.591,478.565c4.331-9.23,14.484-22.263,25.6-22.716c1.777-0.072,1.786-2.843,0-2.771
					c-12.213,0.497-23.201,13.875-27.993,24.088C499.446,478.771,501.833,480.18,502.591,478.565L502.591,478.565z"/>
			</g>
		</g>
		<g>
			<path class="st4" d="M729.179,585.718c0.615-3.499,8.384,0.002,12.873,1.099c6.572,1.606,14.555,2.821,20.625,5.857
				c8.215,2.664,17.766,5.55,24.969,0.785c9.005-5.958,8.024-19.307,12.589-29.092c0.985-2.113,2.323-4.155,4.301-5.39
				c2.089-1.304,4.65-1.565,7.111-1.649c5.858-0.201,11.743,0.414,17.433,1.821c2.844,0.703,5.961,1.878,7.141,4.559
				c1.135,2.579,0.041,5.543-1.05,8.141c-5.399,12.861-10.798,25.722-16.196,38.583c-1.717,4.089-3.603,8.396-7.229,10.95
				c-3.198,2.253-7.26,2.788-11.144,3.256c-6.851,0.827-13.703,1.653-20.554,2.48c-3.824,0.461-7.857,0.895-11.397-0.622
				c-2.615-1.12-4.681-3.195-6.678-5.22c-5.374-5.451-10.748-10.902-16.122-16.353c-4.141-4.201-14.102-10.965-16.172-16.378
				C729.204,587.305,729.062,586.384,729.179,585.718z"/>
		</g>
		<g>
			<path class="st5" d="M877.731,554.34c10.448-17.105,16.763-36.698,24.439-55.638c4.499-11.102,7.784-22.746,9.769-34.612
				c1.006-6.013,1.679-12.084,2.004-18.169c0.313-5.853,1.004-12.796-0.174-18.519c-4.793-0.233-10.245,7.217-13.248,10.496
				c-4.159,4.542-8.124,9.287-11.878,14.213c-5.67,7.438-10.86,15.29-15.518,23.481c-4.6,8.09-9.434,16.457-10.879,25.913
				c15.452-60.904,11.99-85.057,8.616-101.376c-10.046,2.188-43.405,51.175-49.822,87.585c13.015-51.5,8.762-73.825,7.558-97.709
				c-11.181,9.87-56.79,59.834-43.175,111.966c-13.196-35.209-52.285-45.139-61.714-42.62c-1.078,0.288-0.186,8.696-0.08,9.587
				c0.539,4.518,1.614,8.951,2.89,13.276c3.468,11.756,8.567,22.946,14.341,33.555c2.745,5.043,5.719,9.999,8.57,14.938
				c2.74,4.746,6.962,8.916,10.283,13.253c7.119,9.297,14.1,18.783,22.314,27.024c12.138,12.178,27.905,21.716,44.703,20.748
				c13.552-0.781,26.255-8.374,36.235-18.373C868.771,567.545,873.578,561.139,877.731,554.34z"/>
		</g>
		
			<rect x="634.159" y="415.463" transform="matrix(0.9743 -0.225 0.225 0.9743 -77.9242 158.1641)" class="st10" width="41.355" height="10.879"/>
	</g>
</g>
</svg>
