<?xml version="1.0" encoding="utf-8"?>
<!-- Generator: Adobe Illustrator 18.1.1, SVG Export Plug-In . SVG Version: 6.00 Build 0)  -->
<svg version="1.1" id="Layer_1" xmlns="http://www.w3.org/2000/svg" xmlns:xlink="http://www.w3.org/1999/xlink" x="0px" y="0px"
	 viewBox="0 0 745.777 544.759" style="enable-background:new 0 0 745.777 544.759;" xml:space="preserve">
<style type="text/css">
	.st0{clip-path:url(#SVGID_2_);fill:url(#SVGID_3_);}
	.st1{clip-path:url(#SVGID_2_);fill:#EFF1EC;}
	.st2{clip-path:url(#SVGID_2_);}
	.st3{fill:#291401;}
	.st4{fill:#E24326;}
	.st5{fill:#364449;}
	.st6{fill:#303D43;}
	.st7{fill:#EEEEEE;}
	.st8{fill:#E4E4E4;}
	.st9{fill:#405056;}
	.st10{fill:#3A494F;}
	.st11{fill:#FFFFFF;}
	.st12{fill:#F3F3F3;}
	.st13{clip-path:url(#SVGID_2_);fill:#B2B72D;}
	.st14{fill:#83890A;}
	.st15{fill:#737900;}
	.st16{fill:#160200;}
	.st17{fill:#9BA223;}
	.st18{fill:#899013;}
	.st19{fill:#422D1A;}
	.st20{fill:#301B09;}
	.st21{clip-path:url(#SVGID_2_);fill:#33898D;}
	.st22{clip-path:url(#SVGID_2_);fill:#C5C936;}
	.st23{clip-path:url(#SVGID_2_);fill:#754C29;}
	.st24{clip-path:url(#SVGID_5_);}
	.st25{opacity:0.08;fill:#FFFFFF;}
	.st26{clip-path:url(#SVGID_2_);fill:#399599;}
	.st27{clip-path:url(#SVGID_2_);fill:#3B9CA0;}
	.st28{clip-path:url(#SVGID_2_);fill:#3FA1A6;}
	.st29{fill:#023B4F;}
	.st30{fill:#003447;}
	.st31{fill:#CCCCCC;}
	.st32{fill:#E6E6E6;}
	.st33{fill:#E8E8E4;}
	.st34{clip-path:url(#SVGID_2_);fill:#41ABB0;}
	.st35{fill:#CD3D22;}
	.st36{fill:#414042;}
</style>
<g>
	<defs>
		<rect id="SVGID_1_" x="0" y="0" width="745.777" height="544.759"/>
	</defs>
	<clipPath id="SVGID_2_">
		<use xlink:href="#SVGID_1_"  style="overflow:visible;"/>
	</clipPath>
	<linearGradient id="SVGID_3_" gradientUnits="userSpaceOnUse" x1="372.8884" y1="544.759" x2="372.8884" y2="-1.674198e-08">
		<stop  offset="0" style="stop-color:#FFFFFF"/>
		<stop  offset="0.6968" style="stop-color:#EE9C1D"/>
	</linearGradient>
	<rect x="0" y="0" class="st0" width="745.777" height="544.759"/>
	<path class="st1" d="M304.704,365.031c0-10.714-11.083-19.398-24.757-19.398c-3.076,0-6.016,0.441-8.732,1.244
		c2.951-3.194,4.695-7.116,4.695-11.36c0-10.714-11.084-19.398-24.758-19.398c-6.167,0-11.803,1.77-16.138,4.692
		c-1.022-7.1-6.932-13.04-15.036-15.7c1.028-2.132,1.595-4.441,1.595-6.855c0-3.221-1.008-6.256-2.782-8.929
		c9.553-2.69,16.385-9.849,16.385-18.259c0-4.619-2.063-8.856-5.502-12.188c6.203-3.525,10.24-9.246,10.24-15.708
		c0-10.713-11.085-19.399-24.758-19.399v-0.001c0-10.713-11.085-19.399-24.758-19.399c-2.299,0-4.522,0.251-6.634,0.71
		c-2.686-5.055-8.023-9.026-14.651-10.852c1.875-2.732,2.942-5.856,2.942-9.176c0-10.713-11.085-19.399-24.758-19.399
		c-0.605,0-1.202,0.023-1.794,0.056c1.153-2.24,1.794-4.686,1.794-7.251c0-10.712-11.085-19.398-24.759-19.398
		c-4.195,0-8.146,0.821-11.609,2.264c-2.784-8.325-12.45-14.469-23.95-14.469c-13.674,0-24.758,8.686-24.758,19.398
		c0,8.679,7.273,16.024,17.303,18.503c-4.038,3.452-6.503,8.051-6.503,13.101c0,6.558,4.157,12.352,10.516,15.863
		c-6.358,3.511-10.516,9.305-10.516,15.863c0,1.003,0.097,1.988,0.284,2.951c-0.096-0.001-0.189-0.005-0.284-0.005
		c-13.674,0-24.759,8.686-24.759,19.398c0,3.266,1.035,6.341,2.854,9.042c-12.623,0.888-22.519,9.195-22.519,19.315
		c0,10.714,11.085,19.399,24.759,19.399c1.523,0,3.011-0.112,4.459-0.319c-2.807,3.145-4.459,6.969-4.459,11.099
		c0,3.029,0.887,5.895,2.466,8.448c-10.572,2.211-18.36,9.762-18.36,18.739c0,3.509,1.195,6.799,3.275,9.639
		c-9.994,2.494-17.234,9.826-17.234,18.482c0,8.246,6.571,15.287,15.83,18.094c-1.203,2.282-1.871,4.781-1.871,7.404
		c0,4.842,2.27,9.266,6.015,12.666H285.47C296.484,381.972,304.704,374.256,304.704,365.031z"/>
	<path class="st1" d="M317.51,45.302L317.51,45.302L317.51,45.302c0-5.301-5.486-9.6-12.253-9.6c-1.457,0-2.855,0.2-4.151,0.566
		c-0.643-4.827-5.854-8.591-12.185-8.591c-6.423,0-11.687,3.873-12.207,8.799c-1.481-0.498-3.11-0.774-4.824-0.774
		c-6.767,0-12.254,4.299-12.254,9.6c-6.767,0-12.253,4.299-12.253,9.601s5.486,9.601,12.253,9.601c2.673,0,5.145-0.673,7.158-1.811
		c0.823,4.677,5.94,8.279,12.135,8.279c5.715,0,10.516-3.066,11.87-7.212c2.169,2.699,6.003,4.494,10.375,4.494
		c4.559,0,8.535-1.953,10.645-4.849c1.701,0.7,3.636,1.099,5.691,1.099c6.768,0,12.254-4.298,12.254-9.601
		C329.764,49.601,324.278,45.302,317.51,45.302z"/>
	<path class="st1" d="M247.301,97.605L247.301,97.605L247.301,97.605c0-5.696-5.894-10.315-13.165-10.315
		c-1.565,0-3.067,0.215-4.46,0.608c-0.691-5.187-6.289-9.231-13.093-9.231c-6.901,0-12.557,4.161-13.116,9.454
		c-1.591-0.534-3.342-0.831-5.183-0.831c-7.27,0-13.165,4.619-13.165,10.315c-7.271,0-13.165,4.619-13.165,10.316
		c0,5.697,5.894,10.315,13.165,10.315c2.872,0,5.528-0.723,7.691-1.946c0.884,5.025,6.382,8.895,13.038,8.895
		c6.14,0,11.299-3.294,12.754-7.749c2.331,2.9,6.45,4.829,11.147,4.829c4.899,0,9.17-2.099,11.438-5.21
		c1.828,0.753,3.907,1.18,6.114,1.18c7.272,0,13.166-4.619,13.166-10.315C260.467,102.224,254.573,97.605,247.301,97.605z"/>
	<g class="st2">
		<rect x="375.218" y="62.241" class="st3" width="3.1" height="46.817"/>
		<polygon class="st4" points="411.369,79.702 378.119,79.702 378.119,62.241 411.369,62.241 398.55,70.971 		"/>
	</g>
	<g class="st2">
		<g>
			<g>
				<polygon class="st5" points="467.986,119.763 381.12,315.9 527.591,315.9 527.591,119.763 				"/>
				<polygon class="st6" points="585.833,119.763 526.814,119.763 526.814,315.9 672.697,315.9 				"/>
			</g>
			<g>
				<path class="st7" d="M460.039,137.707c25.888,6.253,41.862-15.452,41.862-15.452s5.226,15.52,25.689,16.187l-0.777-152.218
					L460.039,137.707z"/>
				<path class="st8" d="M526.909-13.992l-0.095,0.215v152.218c0.449,0.014,0.896,0.031,1.362,0.031
					c21.638,0,26.072-14.796,26.072-14.796s11.304,19.927,39.199,13.28L526.909-13.992z"/>
			</g>
		</g>
		<g>
			<g>
				<polygon class="st9" points="609.68,205.35 540.335,361.923 656.641,361.923 657.418,205.35 				"/>
				<polygon class="st10" points="703.753,205.35 656.641,205.35 656.641,361.923 773.098,361.923 				"/>
			</g>
			<g>
				<path class="st11" d="M603.337,219.674c20.666,4.991,33.418-12.336,33.418-12.336s4.328,12.388,20.663,12.922l-0.777-121.515
					L603.337,219.674z"/>
				<path class="st12" d="M656.718,98.574l-0.077,0.172v121.515c0.36,0.011,0.715,0.025,1.086,0.025
					c17.274,0,20.816-11.811,20.816-11.811s9.023,15.907,31.291,10.601L656.718,98.574z"/>
			</g>
		</g>
		<g>
			<g>
				<polygon class="st9" points="329.811,208.531 260.467,365.104 377.55,365.104 377.55,208.531 				"/>
				<polygon class="st10" points="423.885,208.531 376.773,208.531 376.773,365.104 493.23,365.104 				"/>
			</g>
			<g>
				<path class="st11" d="M323.468,222.855c20.666,4.991,33.418-12.336,33.418-12.336s4.328,12.388,20.663,12.922l-0.777-121.515
					L323.468,222.855z"/>
				<path class="st12" d="M376.849,101.755l-0.077,0.172v121.515c0.36,0.011-0.062,0.025,0.309,0.025
					c17.274,0,21.593-11.811,21.593-11.811s9.023,15.907,31.291,10.601L376.849,101.755z"/>
			</g>
		</g>
	</g>
	<path class="st13" d="M760.057,376.843H338.44c0,0,99.761-107.981,216.186-107.981
		C671.053,268.862,760.057,376.843,760.057,376.843z"/>
	<g class="st2">
		<g>
			<polygon class="st14" points="450.232,227.203 433.622,299.105 450.247,299.105 450.247,227.269 			"/>
			<polygon class="st15" points="450.247,227.269 450.247,299.105 466.843,299.105 			"/>
			<polygon class="st3" points="450.138,251.691 449.642,268.528 444.483,263.582 449.582,270.569 449.361,278.061 441.431,270.392 
				449.279,280.811 449.047,288.756 439.482,279.445 448.966,291.446 448.16,312.816 450.247,312.816 450.247,255.4 			"/>
			<polygon class="st16" points="451.314,291.673 460.983,279.445 451.233,288.935 451.002,281.049 459.034,270.392 450.92,278.239 
				450.689,270.398 455.662,263.312 450.639,268.686 450.247,255.4 450.247,312.816 452.115,312.816 			"/>
		</g>
		<g>
			<polygon class="st14" points="500.171,215.804 483.562,287.706 500.187,287.706 500.187,215.87 			"/>
			<polygon class="st15" points="500.187,215.87 500.187,287.706 516.783,287.706 			"/>
			<polygon class="st3" points="500.077,240.293 499.581,257.129 494.422,252.183 499.522,259.171 499.3,266.662 491.371,258.993 
				499.218,269.412 498.986,277.357 489.421,268.046 498.906,280.048 498.1,301.417 500.187,301.417 500.187,244.001 			"/>
			<polygon class="st16" points="501.253,280.274 510.923,268.046 501.173,277.536 500.942,269.651 508.973,258.993 500.86,266.841 
				500.628,258.999 505.602,251.914 500.578,257.288 500.187,244.001 500.187,301.417 502.054,301.417 			"/>
		</g>
		<g>
			<polygon class="st14" points="538.275,218.207 523.474,282.28 538.289,282.28 538.289,218.266 			"/>
			<polygon class="st15" points="538.289,218.266 538.289,282.28 553.078,282.28 			"/>
			<polygon class="st3" points="538.191,240.029 537.749,255.032 533.152,250.625 537.696,256.852 537.499,263.527 530.433,256.693 
				537.426,265.978 537.219,273.057 528.696,264.76 537.148,275.455 536.429,294.498 538.289,294.498 538.289,243.333 			"/>
			<polygon class="st16" points="539.239,275.657 547.856,264.76 539.167,273.217 538.962,266.19 546.119,256.693 538.889,263.686 
				538.682,256.698 543.114,250.384 538.638,255.173 538.289,243.333 538.289,294.498 539.953,294.498 			"/>
		</g>
		<g>
			<polygon class="st14" points="618.203,229.135 603.984,290.688 618.216,290.688 618.216,229.19 			"/>
			<polygon class="st15" points="618.216,229.19 618.216,290.688 632.424,290.688 			"/>
			<polygon class="st3" points="618.124,250.098 617.698,264.512 613.282,260.277 617.647,266.259 617.458,272.672 610.669,266.107 
				617.388,275.027 617.188,281.828 609,273.857 617.12,284.132 616.43,302.426 618.216,302.426 618.216,253.272 			"/>
			<polygon class="st16" points="619.13,284.325 627.408,273.857 619.061,281.981 618.863,275.23 625.738,266.107 618.793,272.826 
				618.594,266.112 622.852,260.046 618.552,264.647 618.216,253.272 618.216,302.426 619.815,302.426 			"/>
		</g>
		<g>
			<polygon class="st14" points="577.06,242.321 563.274,301.998 577.072,301.998 577.072,242.374 			"/>
			<polygon class="st15" points="577.072,242.374 577.072,301.998 590.847,301.998 			"/>
			<polygon class="st3" points="576.982,262.645 576.57,276.62 572.289,272.514 576.52,278.314 576.337,284.531 569.755,278.166 
				576.269,286.815 576.076,293.408 568.137,285.681 576.009,295.642 575.34,313.378 577.072,313.378 577.072,265.722 			"/>
			<polygon class="st16" points="577.958,295.829 585.984,285.681 577.891,293.556 577.699,287.011 584.365,278.166 577.631,284.68 
				577.438,278.171 581.567,272.29 577.397,276.751 577.072,265.722 577.072,313.378 578.623,313.378 			"/>
		</g>
		<g>
			<polygon class="st17" points="551.993,283.217 535.383,355.119 552.008,355.119 552.008,283.283 			"/>
			<polygon class="st18" points="552.008,283.283 552.008,355.119 568.603,355.119 			"/>
			<polygon class="st19" points="551.899,307.706 551.402,324.542 546.244,319.596 551.343,326.584 551.122,334.075 
				543.192,326.406 551.04,336.826 550.808,344.77 541.243,335.459 550.727,347.461 549.921,368.83 552.008,368.83 552.008,311.414 
							"/>
			<polygon class="st20" points="553.075,347.687 562.743,335.459 552.994,344.949 552.763,337.064 560.794,326.406 
				552.681,334.254 552.449,326.412 557.423,319.327 552.399,324.701 552.008,311.414 552.008,368.83 553.876,368.83 			"/>
		</g>
		<g>
			<polygon class="st17" points="602.012,285.072 588.769,342.399 602.024,342.399 602.024,285.125 			"/>
			<polygon class="st18" points="602.024,285.125 602.024,342.399 615.255,342.399 			"/>
			<polygon class="st19" points="601.936,304.597 601.54,318.02 597.428,314.077 601.493,319.648 601.317,325.621 594.995,319.506 
				601.251,327.814 601.067,334.147 593.44,326.724 601.002,336.293 600.359,353.331 602.024,353.331 602.024,307.553 			"/>
			<polygon class="st20" points="602.874,336.474 610.583,326.724 602.81,334.29 602.625,328.003 609.029,319.506 602.56,325.763 
				602.376,319.511 606.341,313.862 602.336,318.146 602.024,307.553 602.024,353.331 603.513,353.331 			"/>
		</g>
		<g>
			<polygon class="st17" points="522.827,252.376 506.217,324.278 522.842,324.278 522.842,252.442 			"/>
			<polygon class="st18" points="522.842,252.442 522.842,324.278 539.437,324.278 			"/>
			<polygon class="st19" points="522.733,276.865 522.236,293.701 517.078,288.755 522.177,295.743 521.956,303.234 
				514.026,295.565 521.874,305.984 521.642,313.929 512.077,304.618 521.56,316.62 520.755,337.989 522.842,337.989 
				522.842,280.573 			"/>
			<polygon class="st20" points="523.909,316.846 533.577,304.618 523.828,314.108 523.597,306.223 531.628,295.565 
				523.515,303.413 523.283,295.571 528.257,288.486 523.233,293.86 522.842,280.573 522.842,337.989 524.71,337.989 			"/>
		</g>
		<g>
			<polygon class="st17" points="478.077,245.521 461.468,317.423 478.092,317.423 478.092,245.587 			"/>
			<polygon class="st18" points="478.092,245.587 478.092,317.423 494.688,317.423 			"/>
			<polygon class="st19" points="477.983,270.01 477.487,286.846 472.328,281.9 477.427,288.888 477.206,296.379 469.276,288.71 
				477.124,299.129 476.892,307.074 467.327,297.763 476.811,309.765 476.005,331.134 478.092,331.134 478.092,273.718 			"/>
			<polygon class="st20" points="479.159,309.991 488.828,297.763 479.079,307.253 478.847,299.367 486.879,288.71 478.765,296.557 
				478.534,288.716 483.508,281.63 478.484,287.005 478.092,273.718 478.092,331.134 479.96,331.134 			"/>
		</g>
	</g>
	<path class="st21" d="M679.411,308.21c-25.985,4.918-56.637,37.411-67.688,68.633l27.389,0.232
		c9.327-26.213,23.159-49.525,46.873-64.645C682.658,310.218,682.922,310.364,679.411,308.21z"/>
	<path class="st22" d="M577.061,386.36H206.736c0,0,82.9-75.19,185.162-75.19S577.061,386.36,577.061,386.36z"/>
	<path class="st22" d="M383.702,311.341c-98.457,3.826-176.966,75.019-176.966,75.019h116.256
		c4.882-10.801,10.656-21.294,17.421-31.619C352.492,337.227,366.929,323.012,383.702,311.341z"/>
	<path class="st23" d="M509.486,341.657c-31.979-16.151-72.937-30.487-117.587-30.487c-2.747,0-5.478,0.064-8.196,0.171
		c-16.773,11.671-31.211,25.886-43.289,43.4c-6.765,10.325-12.54,20.818-17.421,31.619h156.284
		C485.728,368.817,493.852,351.882,509.486,341.657z"/>
	<path class="st22" d="M509.486,341.657c-15.634,10.224-23.758,27.16-30.21,44.703h97.785
		C577.061,386.36,550.748,362.496,509.486,341.657z"/>
	<g class="st2">
		<defs>
			<path id="SVGID_4_" d="M509.486,341.657c-31.979-16.151-72.937-30.487-117.587-30.487c-2.747,0-5.478,0.064-8.196,0.171
				c-16.773,11.671-31.211,25.886-43.289,43.4c-6.765,10.325-12.54,20.818-17.421,31.619h156.284
				C485.728,368.817,493.852,351.882,509.486,341.657z"/>
		</defs>
		<clipPath id="SVGID_5_">
			<use xlink:href="#SVGID_4_"  style="overflow:visible;"/>
		</clipPath>
		<g class="st24">
			<path class="st25" d="M499.055,336.621c0,0-1.194,0.616-3.142,1.982c-0.964,0.693-2.12,1.548-3.392,2.592
				c-1.264,1.055-2.654,2.281-4.087,3.7c-1.431,1.419-2.935,2.994-4.393,4.772c-0.751,0.867-1.455,1.817-2.207,2.752
				c-0.704,0.977-1.458,1.941-2.14,2.987c-0.346,0.517-0.695,1.039-1.047,1.564c-0.332,0.538-0.666,1.079-1.001,1.625
				c-0.682,1.08-1.305,2.217-1.956,3.342c-0.63,1.139-1.22,2.313-1.817,3.483c-0.542,1.203-1.144,2.375-1.639,3.6
				c-1.029,2.431-1.908,4.924-2.606,7.426c-0.361,1.246-0.704,2.483-1.017,3.714c-0.306,1.233-0.687,2.42-0.982,3.618
				c-0.316,1.191-0.706,2.336-1.026,3.481c-0.324,1.144-0.679,2.255-1.039,3.338c-0.308,1.096-0.641,2.158-0.951,3.192
				c-0.163,0.515-0.341,1.019-0.487,1.521c-0.137,0.504-0.286,0.996-0.433,1.479c-0.605,1.946-1.159,3.73-1.651,5.312
				c-0.53,1.604-0.992,3.002-1.373,4.154c-0.398,1.16-0.731,2.078-0.982,2.704c-0.245,0.627-0.395,0.962-0.395,0.962l-0.853-0.046
				c0,0-0.101-0.349-0.253-1.007c-0.159-0.658-0.356-1.623-0.581-2.859c-0.238-1.237-0.414-2.739-0.537-4.47
				c-0.072-0.866-0.129-1.789-0.167-2.763c-0.004-0.971-0.009-1.995,0.017-3.063c-0.003-2.143,0.261-4.444,0.541-6.885
				c0.188-1.212,0.396-2.459,0.646-3.725c0.233-1.27,0.622-2.537,0.981-3.83c0.36-1.294,0.856-2.574,1.37-3.86
				c0.473-1.299,1.103-2.563,1.702-3.843c0.58-1.286,1.257-2.545,1.912-3.813c0.642-1.272,1.35-2.521,2.039-3.773
				c0.673-1.259,1.455-2.464,2.174-3.689c0.775-1.195,1.542-2.385,2.346-3.536c0.831-1.134,1.608-2.288,2.497-3.343
				c0.432-0.533,0.863-1.064,1.289-1.591c0.446-0.511,0.889-1.017,1.328-1.52c1.773-1.991,3.569-3.837,5.392-5.454
				c1.796-1.642,3.606-3.063,5.303-4.321c1.696-1.261,3.348-2.281,4.81-3.163c1.473-0.872,2.8-1.551,3.907-2.076
				c2.216-1.038,3.573-1.462,3.573-1.462L499.055,336.621z"/>
			<path class="st25" d="M480.289,328.49c0,0-1.187,0.923-3.11,2.754c-0.954,0.919-2.104,2.041-3.366,3.381
				c-1.272,1.33-2.644,2.887-4.095,4.616c-1.465,1.715-2.951,3.659-4.478,5.731c-1.491,2.103-3.056,4.316-4.518,6.704
				c-0.759,1.174-1.447,2.423-2.187,3.652c-0.675,1.271-1.429,2.51-2.095,3.815c-0.674,1.299-1.365,2.598-1.983,3.942l-0.95,2.004
				l-0.886,2.038c-1.181,2.714-2.153,5.516-3.015,8.29c-0.81,2.781-1.606,5.518-2.378,8.166c-0.771,2.64-1.6,5.169-2.353,7.594
				c-0.189,0.606-0.379,1.203-0.581,1.79c-0.173,0.593-0.344,1.178-0.512,1.753c-0.359,1.151-0.706,2.263-1.039,3.33
				c-0.593,2.156-1.293,4.124-1.782,5.902c-0.512,1.774-1.077,3.321-1.447,4.615c-0.409,1.29-0.75,2.31-1.007,3.007
				c-0.251,0.697-0.404,1.07-0.404,1.07l-0.854-0.046c0,0-0.098-0.388-0.245-1.116c-0.153-0.73-0.342-1.801-0.556-3.173
				c-0.235-1.374-0.342-3.038-0.459-4.96c-0.147-1.925-0.081-4.085-0.009-6.456c0.033-1.186,0.189-2.405,0.291-3.681
				c0.069-0.636,0.139-1.281,0.21-1.938c0.091-0.653,0.201-1.313,0.314-1.983c0.394-2.691,1.052-5.49,1.922-8.326
				c0.48-1.405,0.95-2.84,1.548-4.247c0.595-1.409,1.209-2.827,1.889-4.229c1.362-2.803,2.799-5.612,4.324-8.364l1.14-2.063
				l1.203-2.021c0.785-1.353,1.643-2.654,2.48-3.949c0.833-1.298,1.73-2.541,2.6-3.774c0.923-1.198,1.788-2.41,2.721-3.542
				c1.817-2.298,3.679-4.429,5.504-6.385c1.852-1.935,3.631-3.725,5.358-5.288c1.71-1.579,3.348-2.945,4.826-4.117
				c1.47-1.181,2.802-2.145,3.916-2.914c2.222-1.535,3.588-2.29,3.588-2.29L480.289,328.49z"/>
			<path class="st25" d="M462.857,323.268c0,0-0.094,0.033-0.277,0.099c-0.176,0.068-0.453,0.172-0.8,0.331
				c-0.699,0.309-1.715,0.803-2.941,1.549c-1.226,0.746-2.672,1.718-4.247,2.938c-1.566,1.236-3.238,2.743-4.971,4.467
				c-1.727,1.736-3.462,3.745-5.199,5.938c-1.684,2.242-3.429,4.619-5.018,7.231c-0.834,1.275-1.566,2.656-2.367,4.001
				c-0.727,1.398-1.522,2.772-2.239,4.207c-1.441,2.867-2.821,5.822-4.047,8.848c-0.6,1.518-1.242,3.015-1.74,4.571
				c-0.529,1.541-1.073,3.063-1.515,4.615c-0.455,1.547-0.947,3.057-1.374,4.578c-0.422,1.521-0.893,3.001-1.361,4.458
				c-0.878,2.936-1.894,5.719-2.8,8.397c-0.955,2.66-1.81,5.2-2.67,7.537c-0.883,2.329-1.615,4.498-2.374,6.4
				c-0.759,1.911-1.421,3.578-1.966,4.949c-0.574,1.372-1.045,2.452-1.391,3.184c-0.339,0.734-0.539,1.124-0.539,1.124l-0.842-0.146
				c0,0-0.047-0.432-0.1-1.24c-0.059-0.809-0.11-1.989-0.149-3.493c-0.033-1.504-0.049-3.329,0.086-5.403
				c0.131-2.075,0.234-4.43,0.599-6.961c0.152-1.271,0.359-2.586,0.552-3.955c0.213-1.363,0.497-2.761,0.795-4.198
				c0.54-2.887,1.372-5.877,2.328-8.936c1.05-3.036,2.289-6.12,3.737-9.178c0.678-1.544,1.459-3.065,2.208-4.6
				c0.742-1.537,1.521-3.068,2.318-4.588c1.557-3.054,3.274-6.035,5.047-8.912c0.888-1.438,1.832-2.831,2.76-4.201
				c0.996-1.333,1.911-2.686,2.931-3.94c0.501-0.631,0.998-1.257,1.49-1.878c0.502-0.612,1.025-1.2,1.528-1.79
				c0.988-1.194,2.067-2.274,3.073-3.352c2.096-2.089,4.159-3.974,6.18-5.577c2.026-1.597,3.986-2.918,5.775-3.997
				c1.802-1.063,3.438-1.869,4.82-2.45c2.757-1.171,4.493-1.459,4.493-1.459L462.857,323.268z"/>
			<path class="st25" d="M442.53,317.375c0,0-0.106,0.038-0.311,0.112c-0.197,0.077-0.507,0.195-0.896,0.372
				c-0.782,0.347-1.918,0.904-3.288,1.741c-1.368,0.84-2.989,1.923-4.749,3.293c-1.75,1.386-3.629,3.063-5.555,5.011
				c-1.912,1.965-3.841,4.224-5.758,6.701c-1.852,2.534-3.794,5.202-5.53,8.153c-0.224,0.363-0.448,0.728-0.674,1.094
				c-0.211,0.376-0.423,0.753-0.636,1.133c-0.426,0.756-0.854,1.517-1.285,2.283c-0.8,1.57-1.656,3.129-2.442,4.742
				c-1.563,3.233-3.054,6.564-4.368,9.973c-0.641,1.712-1.333,3.398-1.861,5.147c-0.561,1.734-1.146,3.445-1.611,5.19
				c-1.011,3.454-1.886,6.888-2.864,10.167c-0.898,3.31-1.944,6.457-2.854,9.484c-0.95,3.025-1.848,5.885-2.678,8.525
				c-0.886,2.638-1.598,5.092-2.35,7.247c-0.747,2.166-1.399,4.054-1.935,5.609c-0.55,1.559-1.02,2.783-1.356,3.616
				c-0.332,0.834-0.529,1.277-0.529,1.277l-0.846-0.121c0,0-0.052-0.479-0.113-1.375c-0.065-0.897-0.137-2.21-0.181-3.88
				c-0.017-0.835-0.035-1.76-0.055-2.768c-0.007-1.006,0.042-2.088,0.087-3.245c0.119-2.312,0.198-4.936,0.561-7.762
				c0.148-1.419,0.351-2.889,0.541-4.417c0.209-1.523,0.499-3.088,0.798-4.695c0.539-3.229,1.397-6.581,2.372-10.019
				c0.564-1.699,1.13-3.43,1.771-5.157c0.303-0.869,0.637-1.735,1.009-2.593c0.36-0.861,0.723-1.727,1.086-2.595
				c0.701-1.743,1.525-3.462,2.306-5.198c0.773-1.738,1.603-3.464,2.441-5.182c1.647-3.45,3.476-6.817,5.373-10.071
				c0.957-1.622,1.963-3.204,2.966-4.752c0.527-0.76,1.051-1.515,1.572-2.265c0.26-0.374,0.519-0.746,0.777-1.118
				c0.273-0.362,0.545-0.723,0.815-1.082c0.541-0.716,1.078-1.426,1.61-2.13c0.559-0.683,1.113-1.359,1.661-2.029
				c1.07-1.355,2.253-2.579,3.349-3.801c2.29-2.372,4.561-4.503,6.776-6.329c2.23-1.81,4.375-3.336,6.346-4.572
				c1.978-1.23,3.788-2.155,5.316-2.828c3.048-1.359,4.974-1.71,4.974-1.71L442.53,317.375z"/>
			<path class="st25" d="M422.081,313.207c0,0-0.111,0.037-0.327,0.11c-0.209,0.078-0.535,0.194-0.946,0.376
				c-0.824,0.357-2.023,0.926-3.468,1.794c-1.442,0.875-3.14,2.02-4.989,3.461c-1.856,1.432-3.812,3.226-5.832,5.279
				c-2.032,2.042-4.052,4.437-6.071,7.044c-2.021,2.608-3.986,5.488-5.913,8.526c-1.881,3.074-3.718,6.31-5.445,9.679
				c-0.429,0.843-0.86,1.689-1.292,2.537c-0.43,0.85-0.814,1.729-1.225,2.594c-0.404,0.867-0.809,1.737-1.215,2.607l-1.131,2.658
				l-1.113,2.661c-0.347,0.899-0.686,1.799-1.014,2.701c-0.331,0.9-0.661,1.798-0.99,2.693c-0.3,0.908-0.599,1.813-0.896,2.715
				c-0.596,1.802-1.184,3.585-1.729,5.365c-0.529,1.784-1.169,3.501-1.7,5.229c-0.556,1.72-1.124,3.403-1.721,5.038
				c-0.581,1.645-1.15,3.253-1.704,4.819c-1.157,3.12-2.17,6.108-3.205,8.845c-0.519,1.367-1.012,2.683-1.458,3.942
				c-0.469,1.253-0.907,2.446-1.351,3.56c-0.887,2.236-1.661,4.187-2.298,5.792c-0.652,1.608-1.202,2.868-1.594,3.724
				c-0.387,0.857-0.613,1.312-0.613,1.312l-0.838-0.168c0,0-0.021-0.504-0.023-1.446c-0.006-0.942,0.008-2.32,0.073-4.069
				c0.038-0.876,0.08-1.844,0.126-2.898c0.051-1.055,0.174-2.182,0.292-3.391c0.114-1.211,0.27-2.492,0.427-3.847
				c0.086-0.676,0.174-1.369,0.264-2.079c0.102-0.708,0.234-1.426,0.354-2.164c0.497-2.945,1.055-6.139,1.887-9.463
				c0.406-1.665,0.782-3.387,1.301-5.112c0.505-1.729,1.062-3.484,1.65-5.26c1.276-3.524,2.712-7.124,4.418-10.685
				c0.413-0.894,0.829-1.791,1.245-2.691c0.441-0.891,0.883-1.783,1.326-2.677c0.446-0.892,0.883-1.79,1.313-2.691l1.384-2.665
				l1.375-2.667c0.488-0.874,0.976-1.747,1.463-2.618c0.493-0.868,0.958-1.746,1.47-2.598c0.514-0.85,1.027-1.698,1.538-2.542
				c0.995-1.699,2.106-3.321,3.174-4.932c1.088-1.599,2.229-3.139,3.338-4.655c1.173-1.476,2.262-2.966,3.459-4.333
				c0.588-0.69,1.156-1.381,1.74-2.045c0.602-0.649,1.197-1.291,1.784-1.924c2.386-2.495,4.741-4.757,7.077-6.661
				c2.323-1.914,4.542-3.556,6.624-4.842c2.068-1.302,3.959-2.292,5.563-3.001c1.603-0.714,2.914-1.152,3.819-1.418
				c0.452-0.137,0.804-0.217,1.05-0.275c0.243-0.049,0.369-0.075,0.369-0.075L422.081,313.207z"/>
			<path class="st25" d="M402.476,310.074c0,0-0.421,0.219-1.205,0.686c-0.781,0.465-1.907,1.19-3.298,2.17
				c-1.392,0.978-3.034,2.235-4.869,3.726c-1.839,1.487-3.819,3.282-5.913,5.295c-2.096,2.013-4.238,4.323-6.438,6.809
				c-2.148,2.538-4.409,5.206-6.542,8.13c-1.105,1.429-2.119,2.97-3.203,4.476c-1.012,1.564-2.099,3.096-3.102,4.706
				c-0.997,1.614-2.04,3.211-2.978,4.886c-0.481,0.828-0.963,1.659-1.445,2.491c-0.471,0.838-0.916,1.693-1.375,2.538l-1.347,2.55
				c-0.427,0.863-0.845,1.728-1.253,2.595c-0.405,0.869-0.837,1.721-1.216,2.597c-0.378,0.876-0.756,1.749-1.131,2.619
				c-0.37,0.872-0.761,1.727-1.109,2.599c-0.339,0.876-0.698,1.737-1.051,2.594c-0.354,0.856-0.699,1.709-1.074,2.542
				c-0.341,0.848-0.679,1.69-1.015,2.526c-1.432,3.301-2.754,6.524-4.136,9.539c-1.262,3.064-2.591,5.92-3.703,8.614
				c-0.568,1.341-1.143,2.62-1.688,3.84c-0.523,1.228-1.007,2.397-1.497,3.489c-0.986,2.192-1.845,4.103-2.552,5.676
				c-0.711,1.58-1.307,2.818-1.729,3.661c-0.418,0.842-0.661,1.289-0.661,1.289l-0.832-0.197c0,0-0.002-0.505,0.03-1.447
				c0.029-0.943,0.094-2.322,0.225-4.073c0.076-0.872,0.131-1.848,0.247-2.898c0.133-1.045,0.278-2.177,0.456-3.383
				c0.167-1.209,0.376-2.489,0.594-3.842c0.268-1.339,0.55-2.749,0.874-4.214c0.592-2.947,1.49-6.073,2.45-9.382
				c1.044-3.281,2.203-6.732,3.736-10.172c0.384-0.859,0.772-1.724,1.163-2.596c0.411-0.864,0.858-1.719,1.3-2.582
				c0.866-1.733,1.809-3.454,2.812-5.163c0.981-1.718,1.971-3.444,3.038-5.139c0.526-0.85,1.045-1.707,1.556-2.567l1.62-2.535
				c0.542-0.844,1.068-1.696,1.622-2.531c0.565-0.827,1.129-1.654,1.692-2.478c1.102-1.664,2.309-3.249,3.465-4.845
				c1.168-1.589,2.397-3.115,3.599-4.625c1.266-1.465,2.454-2.955,3.731-4.333c0.629-0.696,1.253-1.385,1.872-2.069
				c0.638-0.665,1.269-1.324,1.894-1.976c1.231-1.318,2.531-2.519,3.763-3.714c2.533-2.324,4.975-4.459,7.338-6.297
				c2.36-1.839,4.571-3.456,6.607-4.779c2.027-1.333,3.838-2.425,5.38-3.236c3.06-1.652,4.951-2.35,4.951-2.35L402.476,310.074z"/>
		</g>
	</g>
	<path class="st26" d="M726.323,371.559c-15.328,0-27.864-6.728-28.859-15.234h-0.142c-0.995,8.506-13.531,15.234-28.859,15.234
		s-27.864-6.728-28.859-15.234h-0.142c-0.995,8.506-13.531,15.234-28.859,15.234s-27.864-6.728-28.859-15.234h-0.142
		c-0.995,8.506-13.531,15.234-28.859,15.234c-15.328,0-27.864-6.728-28.859-15.234h-0.142c-0.995,8.506-13.531,15.234-28.859,15.234
		c-15.328,0-27.864-6.728-28.859-15.234h-0.142c-0.995,8.506-13.531,15.234-28.859,15.234s-27.864-6.728-28.859-15.234h-0.142
		c-0.995,8.506-13.531,15.234-28.859,15.234c-15.328,0-27.864-6.728-28.858-15.234h-0.143c-0.994,8.506-13.53,15.234-28.858,15.234
		s-27.864-6.728-28.858-15.234h-0.143c-0.994,8.506-13.53,15.234-28.858,15.234s-27.864-6.728-28.858-15.234h-0.143
		c-0.994,8.506-13.53,15.234-28.858,15.234s-27.864-6.728-28.858-15.234h-0.143c-0.994,8.506-13.53,15.234-28.858,15.234
		s-27.864-6.728-28.858-15.234h-0.143c-0.994,8.506-13.53,15.234-28.858,15.234s-27.864-6.728-28.858-15.234h-0.143
		c-0.994,8.506-13.53,15.234-28.858,15.234c-15.328,0-27.864-6.728-28.858-15.234H0v140.468h750.257V364.406
		C745.052,368.723,736.275,371.559,726.323,371.559z"/>
	<path class="st27" d="M730.679,393.113h-0.142c-0.349,2.983-2.121,5.745-4.931,8.077v-0.008
		c-5.205,4.318-13.982,7.154-23.934,7.154c-13.408,0-24.68-5.148-27.958-12.132c-0.466-0.996-0.77-2.029-0.894-3.091h-0.004
		c0-0.004-0.002-0.008-0.002-0.011h-0.142c-0.996,8.507-13.532,15.234-28.859,15.234c-13.408,0-24.68-5.148-27.958-12.132
		c-0.466-0.996-0.77-2.029-0.894-3.091h-0.004c0-0.004-0.002-0.008-0.002-0.011h-0.142c-0.996,8.507-13.532,15.234-28.859,15.234
		c-13.408,0-24.681-5.148-27.959-12.133c-0.465-0.996-0.77-2.029-0.893-3.09h-0.004c0-0.004-0.002-0.008-0.002-0.011h-0.142
		c-0.995,8.507-13.532,15.234-28.859,15.234c-13.408,0-24.681-5.148-27.959-12.133c-0.465-0.996-0.77-2.029-0.893-3.09h-0.004
		c0-0.004-0.002-0.008-0.002-0.011h-0.142c-0.996,8.507-13.532,15.234-28.859,15.234c-13.408,0-24.68-5.148-27.958-12.132
		c-0.466-0.996-0.77-2.029-0.894-3.091h-0.004c0-0.004-0.002-0.008-0.002-0.011h-0.142c-0.996,8.507-13.532,15.234-28.859,15.234
		c-13.408,0-24.68-5.148-27.958-12.132c-0.466-0.996-0.77-2.029-0.894-3.091h-0.004c0-0.004-0.002-0.008-0.002-0.011h-0.142
		c-0.996,8.507-13.532,15.234-28.859,15.234c-13.408,0-24.68-5.148-27.959-12.132c-0.465-0.996-0.77-2.029-0.893-3.091h-0.004
		c0-0.004-0.002-0.008-0.002-0.011h-0.143c-0.994,8.507-13.53,15.234-28.858,15.234c-13.409,0-24.681-5.148-27.959-12.132
		c-0.466-0.996-0.77-2.029-0.894-3.091h-0.004c0-0.004-0.001-0.008-0.002-0.011h-0.143c-0.994,8.507-13.53,15.234-28.858,15.234
		c-13.409,0-24.681-5.148-27.959-12.132c-0.466-0.996-0.77-2.029-0.894-3.091h-0.004c0-0.004-0.001-0.008-0.002-0.011h-0.143
		c0,0.003-0.001,0.008-0.002,0.011h-3.011v6.224c-4.756,5.336-14.537,8.999-25.845,8.999c-15.328,0-27.864-6.728-28.858-15.234
		h-0.143c-0.994,8.507-13.53,15.234-28.858,15.234c-15.328,0-27.864-6.728-28.858-15.234h-0.143
		c-0.994,8.507-13.53,15.234-28.858,15.234c-15.328,0-27.864-6.728-28.858-15.234h-0.143c-0.994,8.507-13.53,15.234-28.858,15.234
		c-2.548,0-5.015-0.19-7.368-0.539v64.639h206.79v0.012h545.374v-64.64C740.361,406.056,731.508,400.205,730.679,393.113z"/>
	<path class="st28" d="M726.323,446.817c-13.408,0-24.68-5.149-27.958-12.132c-0.466-0.996-0.77-2.03-0.894-3.091h-0.004
		c0-0.004-0.002-0.008-0.002-0.011h-0.142c-0.996,8.507-13.532,15.234-28.859,15.234c-13.408,0-24.68-5.149-27.958-12.132
		c-0.466-0.996-0.77-2.03-0.894-3.091h-0.004c0-0.004-0.002-0.008-0.002-0.011h-0.142c-0.996,8.507-13.532,15.234-28.859,15.234
		c-13.408,0-24.681-5.149-27.959-12.133c-0.466-0.996-0.77-2.029-0.893-3.09h-0.004c0-0.004-0.002-0.008-0.002-0.011h-0.142
		c-0.996,8.507-13.532,15.234-28.859,15.234c-13.408,0-24.681-5.149-27.959-12.133c-0.466-0.996-0.77-2.029-0.893-3.09h-0.004
		c0-0.004-0.002-0.008-0.002-0.011h-0.142c-0.996,8.507-13.532,15.234-28.859,15.234c-13.408,0-24.68-5.149-27.958-12.132
		c-0.466-0.996-0.77-2.03-0.894-3.091h-0.004c0-0.004-0.002-0.008-0.002-0.011h-0.142c-0.996,8.507-13.532,15.234-28.859,15.234
		c-13.408,0-24.68-5.149-27.958-12.132c-0.466-0.996-0.77-2.03-0.894-3.091h-0.004c0-0.004-0.002-0.008-0.002-0.011h-0.142
		c-0.996,8.507-13.532,15.234-28.859,15.234c-13.409,0-24.68-5.149-27.958-12.132c-0.466-0.996-0.77-2.03-0.894-3.091h-0.004
		c0-0.004-0.001-0.008-0.002-0.011h-0.143c-0.994,8.507-13.53,15.234-28.858,15.234c-13.409,0-24.681-5.149-27.959-12.132
		c-0.466-0.996-0.77-2.03-0.894-3.091h-0.004c0-0.004-0.001-0.008-0.002-0.011h-0.143c-0.994,8.507-13.53,15.234-28.858,15.234
		c-13.409,0-30.785-9.008-30.785-15.234c0,6.04-15.766,15.234-27.074,15.234c-15.328,0-27.864-6.728-28.858-15.234h-0.143
		c-0.994,8.507-13.53,15.234-28.858,15.234s-27.864-6.728-28.858-15.234h-0.143c-0.994,8.507-13.53,15.234-28.858,15.234
		s-27.864-6.728-28.858-15.234h-0.143c-0.994,8.507-13.53,15.234-28.858,15.234S4.154,440.09,3.161,431.583H0v79.334h231.44v0.011
		h515.299v-68.878C741.507,444.994,734.294,446.817,726.323,446.817z"/>
	<g class="st2">
		<polygon class="st29" points="44.834,423.973 84.566,487.375 175.481,487.375 176.547,423.973 		"/>
		<polygon class="st30" points="316.375,423.973 175.481,423.973 175.481,487.375 264.046,487.375 		"/>
		<path class="st31" d="M64.287,416.427h111.046c0,0,0-164.256,0-189.351C79.96,296.428,64.287,416.427,64.287,416.427z"/>
		<path class="st32" d="M183.16,251.206c0,21.793,0,164.439,0,164.439h96.436C279.596,415.646,265.987,311.434,183.16,251.206z"/>
		<polygon class="st7" points="52.225,435.768 59.383,447.189 176.547,447.189 176.547,435.768 		"/>
		<polygon class="st33" points="306.704,435.768 175.481,435.768 175.481,447.189 297.212,447.189 		"/>
	</g>
	<path class="st34" d="M730.679,466.094h-0.142c-0.349,2.982-2.121,5.744-4.931,8.077v-0.009
		c-5.205,4.318-13.982,7.154-23.934,7.154c-13.408,0-24.68-5.148-27.958-12.131c-0.466-0.997-0.77-2.03-0.894-3.091h-0.004
		c0-0.004-0.002-0.008-0.002-0.012h-0.142c-0.996,8.507-13.532,15.234-28.859,15.234c-13.408,0-24.68-5.148-27.958-12.131
		c-0.466-0.997-0.77-2.03-0.894-3.091h-0.004c0-0.004-0.002-0.008-0.002-0.012h-0.142c-0.996,8.507-13.532,15.234-28.859,15.234
		c-13.408,0-24.681-5.148-27.959-12.132c-0.465-0.997-0.77-2.029-0.893-3.09h-0.004c0-0.004-0.002-0.008-0.002-0.012h-0.142
		c-0.995,8.507-13.532,15.234-28.859,15.234c-13.408,0-24.681-5.148-27.959-12.132c-0.465-0.997-0.77-2.029-0.893-3.09h-0.004
		c0-0.004-0.002-0.008-0.002-0.012h-0.142c-0.996,8.507-13.532,15.234-28.859,15.234c-13.408,0-24.68-5.148-27.958-12.131
		c-0.466-0.997-0.77-2.03-0.894-3.091h-0.004c0-0.004-0.002-0.008-0.002-0.012h-0.142c-0.996,8.507-13.532,15.234-28.859,15.234
		c-13.408,0-24.68-5.148-27.958-12.131c-0.466-0.997-0.77-2.03-0.894-3.091h-0.004c0-0.004-0.002-0.008-0.002-0.012h-0.142
		c-0.996,8.507-13.532,15.234-28.859,15.234c-13.409,0-24.681-5.148-27.959-12.131c-0.466-0.997-0.77-2.03-0.894-3.091h-0.004
		c0-0.004-0.001-0.008-0.002-0.012h-0.143c-0.994,8.507-13.53,15.234-28.858,15.234c-13.409,0-24.681-5.148-27.959-12.131
		c-0.466-0.997-0.77-2.03-0.894-3.091h-0.004c0-0.004-0.001-0.008-0.002-0.012h-0.143c-0.994,8.507-13.53,15.234-28.858,15.234
		c-13.409,0-30.098-3.765-30.098-15.234c0,9.624-16.452,15.234-27.76,15.234c-15.328,0-27.864-6.727-28.858-15.234h-0.143
		c-0.994,8.507-13.53,15.234-28.858,15.234c-15.328,0-27.864-6.727-28.858-15.234h-0.143c-0.994,8.507-13.53,15.234-28.858,15.234
		c-15.328,0-27.864-6.727-28.858-15.234h-0.143c-0.994,8.507-13.53,15.234-28.858,15.234c-2.548,0-5.015-0.19-7.368-0.539v64.639
		h206.79v0.011h545.374v-64.639C740.361,479.037,731.508,473.186,730.679,466.094z"/>
	<g class="st2">
		<g>
			<path class="st35" d="M611.269,421.688c0,0-19.839,0.502-21.618,3.41c-0.93,1.522,4.512,4.174,7.805,8.265
				c3.004,3.731,3.762,9.024,5.437,8.543C606.407,440.895,611.269,421.688,611.269,421.688z"/>
			<path class="st4" d="M605.609,424.78c3.759,4.771,10.715,5.559,16.785,0.777c6.068-4.782,7.604-15.033,5.193-18.093
				c-2.412-3.061-12.738-3.967-18.808,0.814C602.711,413.061,601.848,420.008,605.609,424.78z"/>
		</g>
		<g>
			<circle class="st11" cx="618.911" cy="410.853" r="2.846"/>
			<g>
				<circle class="st36" cx="618.911" cy="410.853" r="1.511"/>
				<circle class="st11" cx="617.822" cy="410.573" r="0.897"/>
			</g>
		</g>
	</g>
	<g class="st2">
		<g>
			<path class="st35" d="M442.569,472.083c0,0,31.92,0.808,34.782,5.488c1.498,2.449-7.258,6.715-12.559,13.298
				c-4.832,6.003-6.052,14.521-8.747,13.746C450.389,502.987,442.569,472.083,442.569,472.083z"/>
			<path class="st4" d="M451.674,477.059c-6.049,7.677-17.241,8.945-27.005,1.251c-9.765-7.694-12.235-24.187-8.355-29.111
				c3.881-4.925,20.494-6.383,30.261,1.31C456.338,458.203,457.726,469.381,451.674,477.059z"/>
		</g>
		<g>
			<circle class="st11" cx="430.272" cy="454.65" r="4.579"/>
			<g>
				<circle class="st36" cx="430.272" cy="454.65" r="2.431"/>
				<circle class="st11" cx="432.024" cy="454.199" r="1.443"/>
			</g>
		</g>
	</g>
</g>
</svg>
