<?xml-stylesheet type="text/css" href="../css/logosvg.css" ?>  

<svg version="1.1" id="Layer_1" xmlns="http://www.w3.org/2000/svg" xmlns:xlink="http://www.w3.org/1999/xlink"
	 viewBox="0 0 353 353">
<path class="path" fill="#000000" stroke="#000000" stroke-width="1" d="M176.5,0C79.2,0,0,79.2,0,176.5S79.2,353,176.5,353c97.3,0,176.5-79.2,176.5-176.5S273.8,0,176.5,0z M176.5,33.8
	c32.8,0,63,11,87.1,29.6h-51.4l-33.6,61.5l-34.2-61.5H89.4C113.5,44.8,143.7,33.8,176.5,33.8z M33.8,176.5
	c0-38.1,14.9-72.7,39.2-98.3l64,91L68.6,269.9C46.9,244.9,33.8,212.2,33.8,176.5z M176.5,319.2c-32.8,0-63-11-87.1-29.6h45.7
	l39.9-67.5l38.7,67.5h49.8C239.4,308.1,209.3,319.2,176.5,319.2z M284.4,269.9l-67.5-100.1l62.7-92c24.5,25.6,39.6,60.4,39.6,98.7
	C319.2,212.2,306.1,244.9,284.4,269.9z"/>
</svg>
